<!DOCTYPE svg PUBLIC "-//W3C//DTD SVG 20010904//EN" "http://www.w3.org/TR/2001/REC-SVG-20010904/DTD/svg10.dtd">
<svg version="1.0" xmlns="http://www.w3.org/2000/svg" width="1200px" height="838px" viewBox="0 0 12000 8380" preserveAspectRatio="xMidYMid meet">
<g id="layer101" fill="#fff" stroke="none">
 <path d="M4590 7315 c-8 -2 -78 -11 -155 -20 -167 -20 -279 -51 -360 -101 -33 -20 -94 -57 -135 -81 -103 -61 -115 -75 -150 -164 -28 -74 -30 -87 -30 -221 0 -79 -7 -216 -15 -306 -14 -161 -14 -175 8 -220 24 -51 105 -67 151 -31 52 41 49 22 63 439 6 177 12 242 23 262 22 39 211 154 290 177 156 45 407 62 841 56 385 -5 436 -10 697 -60 195 -37 289 -50 432 -60 113 -7 305 -44 422 -81 103 -33 437 -163 504 -197 86 -43 89 -51 88 -191 -1 -85 -7 -149 -22 -216 -12 -52 -22 -119 -22 -150 0 -48 4 -60 28 -82 54 -50 91 -59 142 -33 43 22 60 63 58 137 -1 35 6 108 16 163 23 125 18 328 -8 390 -42 100 -134 159 -427 275 -343 136 -513 179 -814 205 -93 8 -251 30 -350 50 -302 59 -381 65 -845 64 -228 -1 -422 -3 -430 -4z"/>
 <path d="M5228 6874 c-57 -31 -66 -107 -19 -155 49 -48 125 -38 156 21 24 46 19 78 -19 116 -38 38 -73 43 -118 18z"/>
 <path d="M5700 6863 c-8 -3 -27 -17 -42 -31 -52 -48 -31 -140 37 -162 44 -15 80 -4 110 32 51 61 18 145 -65 162 -14 3 -32 2 -40 -1z"/>
 <path d="M4910 6832 c-109 -55 -40 -220 77 -181 36 11 73 58 73 92 0 34 -31 79 -65 93 -43 18 -43 18 -85 -4z"/>
 <path d="M5454 6636 c-45 -45 -47 -95 -5 -137 23 -23 38 -29 71 -29 102 0 139 139 49 186 -45 23 -78 17 -115 -20z"/>
 <path d="M5076 6609 c-14 -11 -30 -35 -34 -52 -31 -117 131 -178 187 -70 46 91 -72 186 -153 122z"/>
 <path d="M5859 6591 c-64 -64 -16 -171 76 -171 42 0 95 59 95 105 0 53 -44 95 -100 95 -33 0 -48 -6 -71 -29z"/>
 <path d="M5700 6402 c-63 -31 -78 -99 -34 -151 61 -73 173 -34 174 61 0 28 -7 46 -27 67 -36 38 -70 45 -113 23z"/>
 <path d="M6065 6411 c-43 -19 -83 -98 -69 -137 12 -34 57 -74 91 -80 122 -23 181 112 85 199 -23 21 -79 30 -107 18z"/>
 <path d="M5304 6396 c-41 -18 -64 -52 -64 -94 0 -46 55 -102 100 -102 45 0 100 56 100 102 0 43 -23 76 -66 94 -39 16 -32 16 -70 0z"/>
 <path d="M3620 5901 c-69 -21 -130 -73 -166 -142 -21 -42 -29 -125 -15 -176 22 -80 101 -161 180 -183 30 -8 3238 -106 3661 -111 153 -2 181 5 250 67 63 57 84 105 84 189 0 79 -20 130 -76 185 -51 51 -110 72 -213 77 -134 6 -3600 103 -3643 102 -20 0 -48 -4 -62 -8z"/>
 <path d="M3590 4721 c-78 -24 -157 -99 -178 -169 -15 -49 -15 -132 -1 -169 27 -74 98 -142 170 -164 22 -7 687 -17 1904 -30 2096 -21 1936 -25 2020 52 59 55 85 113 85 192 0 109 -57 194 -159 240 -43 19 -97 20 -1870 38 -2056 20 -1937 20 -1971 10z"/>
 <path d="M5110 3541 l-1515 -6 -50 -23 c-101 -47 -156 -130 -157 -238 0 -78 26 -136 87 -193 82 -75 -62 -71 1945 -63 1792 7 1795 7 1840 28 65 30 105 68 134 126 65 131 4 294 -133 357 -44 19 -48 20 -2151 12z"/>
 <path d="M3663 2780 c-42 -25 -51 -44 -73 -158 -14 -77 -19 -156 -21 -377 -3 -330 9 -763 23 -820 13 -53 89 -126 197 -190 171 -100 395 -133 785 -116 221 10 368 5 646 -20 135 -13 562 -6 730 12 52 5 246 14 430 19 337 9 454 21 516 53 63 33 262 172 307 216 27 25 60 66 73 91 14 25 39 66 56 93 28 42 32 59 40 155 5 59 8 136 8 172 0 36 0 121 0 190 0 82 -6 144 -16 179 -12 41 -13 64 -5 101 8 38 7 60 -5 102 -8 29 -19 80 -24 113 -7 48 -14 65 -39 87 -75 67 -181 6 -181 -105 0 -19 9 -60 20 -93 16 -46 18 -65 10 -88 -5 -16 -10 -40 -10 -53 0 -21 -2 -22 -21 -12 -12 6 -38 8 -58 5 -20 -3 -418 -4 -886 -3 -965 2 -1436 2 -1840 -3 -197 -2 -296 1 -335 9 -30 7 -76 15 -101 18 -42 4 -48 2 -77 -32 l-32 -36 0 88 c0 91 22 239 40 273 5 10 10 30 10 44 0 87 -90 133 -167 86z"/>
 </g>
<g id="layer102" fill="#000" stroke="none">
 <path d="M4623 7313 c15 -2 37 -2 50 0 12 2 0 4 -28 4 -27 0 -38 -2 -22 -4z"/>
 <path d="M5403 7313 c15 -2 37 -2 50 0 12 2 0 4 -28 4 -27 0 -38 -2 -22 -4z"/>
 <path d="M6158 7203 c12 -2 30 -2 40 0 9 3 -1 5 -23 4 -22 0 -30 -2 -17 -4z"/>
 <path d="M4653 7103 c15 -2 37 -2 50 0 12 2 0 4 -28 4 -27 0 -38 -2 -22 -4z"/>
 <path d="M5068 7103 c34 -2 88 -2 120 0 31 2 3 3 -63 3 -66 0 -92 -1 -57 -3z"/>
 <path d="M5363 7103 c15 -2 39 -2 55 0 15 2 2 4 -28 4 -30 0 -43 -2 -27 -4z"/>
 <path d="M6133 6993 c9 -2 25 -2 35 0 9 3 1 5 -18 5 -19 0 -27 -2 -17 -5z"/>
 <path d="M3752 6510 c0 -19 2 -27 5 -17 2 9 2 25 0 35 -3 9 -5 1 -5 -18z"/>
 <path d="M3962 6490 c0 -19 2 -27 5 -17 2 9 2 25 0 35 -3 9 -5 1 -5 -18z"/>
 <path d="M3742 6400 c0 -19 2 -27 5 -17 2 9 2 25 0 35 -3 9 -5 1 -5 -18z"/>
 <path d="M3952 6380 c0 -19 2 -27 5 -17 2 9 2 25 0 35 -3 9 -5 1 -5 -18z"/>
 <path d="M5323 6203 c9 -2 25 -2 35 0 9 3 1 5 -18 5 -19 0 -27 -2 -17 -5z"/>
 <path d="M6098 6193 c12 -2 30 -2 40 0 9 3 -1 5 -23 4 -22 0 -30 -2 -17 -4z"/>
 <path d="M3783 5903 c20 -2 54 -2 75 0 20 2 3 4 -38 4 -41 0 -58 -2 -37 -4z"/>
 <path d="M4133 5893 c20 -2 54 -2 75 0 20 2 3 4 -38 4 -41 0 -58 -2 -37 -4z"/>
 <path d="M4483 5883 c20 -2 54 -2 75 0 20 2 3 4 -38 4 -41 0 -58 -2 -37 -4z"/>
 <path d="M4837 5873 c18 -2 50 -2 70 0 21 2 7 4 -32 4 -38 0 -55 -2 -38 -4z"/>
 <path d="M5187 5863 c18 -2 50 -2 70 0 21 2 7 4 -32 4 -38 0 -55 -2 -38 -4z"/>
 <path d="M5543 5853 c20 -2 54 -2 75 0 20 2 3 4 -38 4 -41 0 -58 -2 -37 -4z"/>
 <path d="M5893 5843 c20 -2 54 -2 75 0 20 2 3 4 -38 4 -41 0 -58 -2 -37 -4z"/>
 <path d="M6247 5833 c18 -2 50 -2 70 0 21 2 7 4 -32 4 -38 0 -55 -2 -38 -4z"/>
 <path d="M6597 5823 c18 -2 50 -2 70 0 21 2 7 4 -32 4 -38 0 -55 -2 -38 -4z"/>
 <path d="M6953 5813 c20 -2 54 -2 75 0 20 2 3 4 -38 4 -41 0 -58 -2 -37 -4z"/>
 <path d="M7298 5803 c18 -2 45 -2 60 0 15 2 0 4 -33 4 -33 0 -45 -2 -27 -4z"/>
 <path d="M7613 5545 c0 -27 2 -38 4 -22 2 15 2 37 0 50 -2 12 -4 0 -4 -28z"/>
 <path d="M3863 5383 c26 -2 67 -2 90 0 23 2 2 3 -48 3 -49 0 -68 -1 -42 -3z"/>
 <path d="M4213 5373 c26 -2 67 -2 90 0 23 2 2 3 -48 3 -49 0 -68 -1 -42 -3z"/>
 <path d="M4563 5363 c26 -2 67 -2 90 0 23 2 2 3 -48 3 -49 0 -68 -1 -42 -3z"/>
 <path d="M4913 5353 c26 -2 67 -2 90 0 23 2 2 3 -48 3 -49 0 -68 -1 -42 -3z"/>
 <path d="M5263 5343 c26 -2 67 -2 90 0 23 2 2 3 -48 3 -49 0 -68 -1 -42 -3z"/>
 <path d="M5613 5333 c26 -2 68 -2 95 0 26 2 4 3 -48 3 -52 0 -74 -1 -47 -3z"/>
 <path d="M5973 5323 c26 -2 67 -2 90 0 23 2 2 3 -48 3 -49 0 -68 -1 -42 -3z"/>
 <path d="M6323 5313 c26 -2 67 -2 90 0 23 2 2 3 -48 3 -49 0 -68 -1 -42 -3z"/>
 <path d="M6673 5303 c26 -2 67 -2 90 0 23 2 2 3 -48 3 -49 0 -68 -1 -42 -3z"/>
 <path d="M7023 5293 c26 -2 68 -2 95 0 26 2 4 3 -48 3 -52 0 -74 -1 -47 -3z"/>
 <path d="M3718 4723 c61 -2 163 -2 225 0 61 1 11 3 -113 3 -124 0 -174 -2 -112 -3z"/>
 <path d="M4788 4713 c57 -2 147 -2 200 0 53 1 7 3 -103 3 -110 0 -154 -2 -97 -3z"/>
 <path d="M5828 4703 c57 -2 147 -2 200 0 53 1 7 3 -103 3 -110 0 -154 -2 -97 -3z"/>
 <path d="M6868 4693 c57 -2 147 -2 200 0 53 1 7 3 -103 3 -110 0 -154 -2 -97 -3z"/>
 <path d="M3968 4203 c72 -2 192 -2 265 0 72 1 13 3 -133 3 -146 0 -205 -2 -132 -3z"/>
 <path d="M5003 4193 c76 -2 198 -2 270 0 73 1 11 3 -138 3 -148 0 -208 -2 -132 -3z"/>
 <path d="M6043 4183 c76 -2 198 -2 270 0 73 1 11 3 -138 3 -148 0 -208 -2 -132 -3z"/>
 <path d="M7053 4173 c59 -2 155 -2 215 0 59 1 10 3 -108 3 -118 0 -167 -2 -107 -3z"/>
 <path d="M6763 3543 c82 -2 212 -2 290 0 78 1 12 3 -148 3 -159 0 -223 -2 -142 -3z"/>
 <path d="M4088 3533 c167 -2 437 -2 600 0 163 1 27 2 -303 2 -330 0 -464 -1 -297 -2z"/>
 <path d="M6193 3023 c180 -2 474 -2 655 0 180 1 32 2 -328 2 -360 0 -508 -1 -327 -2z"/>
 <path d="M3818 3013 c117 -2 306 -2 420 0 114 1 18 2 -213 2 -231 0 -324 -1 -207 -2z"/>
 <path d="M7133 2345 c0 -22 2 -30 4 -17 2 12 2 30 0 40 -3 9 -5 -1 -4 -23z"/>
 <path d="M4658 2333 c29 -2 74 -2 100 0 26 2 2 3 -53 3 -55 0 -76 -1 -47 -3z"/>
 <path d="M5173 2333 c26 -2 68 -2 95 0 26 2 4 3 -48 3 -52 0 -74 -1 -47 -3z"/>
 <path d="M4088 2323 c12 -2 32 -2 45 0 12 2 2 4 -23 4 -25 0 -35 -2 -22 -4z"/>
 <path d="M4443 2323 c15 -2 39 -2 55 0 15 2 2 4 -28 4 -30 0 -43 -2 -27 -4z"/>
 <path d="M6817 2323 c18 -2 50 -2 70 0 21 2 7 4 -32 4 -38 0 -55 -2 -38 -4z"/>
 <path d="M3779 2170 c-1 -69 -3 -136 -2 -150 9 -367 17 -527 26 -539 19 -23 120 -84 172 -102 119 -42 198 -50 444 -47 357 4 554 1 681 -11 139 -13 709 -13 835 0 50 5 241 14 425 19 184 5 358 14 386 19 89 16 322 181 350 246 7 17 23 43 36 60 19 25 25 49 34 150 7 73 7 132 2 150 -5 17 -9 63 -9 102 l0 73 -31 -16 c-25 -13 -58 -15 -176 -13 -144 4 -145 4 -155 -19 -8 -17 -7 -40 1 -77 12 -58 5 -99 -24 -143 -12 -18 -15 -37 -10 -72 4 -26 2 -59 -3 -73 -33 -87 -143 -91 -186 -7 -21 41 -20 160 2 208 12 25 17 63 18 114 l0 78 -57 0 c-43 0 -58 -4 -58 -14 0 -8 -9 -24 -19 -37 -17 -21 -19 -35 -14 -119 7 -126 -8 -201 -48 -235 -69 -57 -159 -12 -159 80 0 25 4 54 10 64 6 11 6 54 -1 117 -15 161 4 144 -163 144 l-144 0 -26 -31 c-18 -21 -26 -42 -26 -69 0 -21 -4 -50 -10 -64 -5 -15 -12 -63 -16 -109 -12 -151 -61 -212 -151 -188 -24 7 -51 23 -62 38 -27 34 -27 92 -1 126 12 15 20 40 20 64 0 21 7 65 15 96 8 32 15 76 15 97 l0 40 -44 0 c-42 0 -44 -1 -50 -35 -4 -19 -22 -54 -40 -78 -41 -54 -49 -85 -50 -204 -1 -82 -4 -94 -25 -117 -46 -49 -125 -41 -165 16 -31 43 3 330 45 390 l20 28 -39 0 c-22 0 -60 3 -85 6 l-45 6 -10 -36 c-6 -22 -7 -48 -2 -66 5 -16 10 -93 11 -170 l3 -140 -27 -28 c-39 -39 -105 -38 -144 1 -27 27 -28 31 -35 180 -3 83 -7 176 -7 205 l-1 52 -149 0 -149 0 -12 -36 c-10 -28 -10 -49 0 -95 12 -56 11 -61 -15 -114 -21 -44 -25 -63 -20 -95 13 -80 -29 -140 -97 -140 -43 0 -76 24 -94 66 -20 47 -18 156 3 202 12 25 17 64 18 120 l0 84 -35 -6 c-19 -3 -45 -6 -57 -6 -13 0 -23 -6 -23 -14 0 -7 -9 -25 -20 -39 -18 -23 -19 -33 -12 -100 5 -49 4 -99 -4 -148 -11 -62 -18 -79 -44 -101 -42 -39 -92 -38 -131 1 -31 32 -39 84 -19 137 12 29 -6 241 -21 260 -5 6 -53 14 -107 18 -178 12 -220 35 -233 123 -5 36 -7 16 -10 -77z"/>
 <path d="M3563 2030 c0 -36 2 -50 4 -32 2 17 2 47 0 65 -2 17 -4 3 -4 -33z"/>
 <path d="M7383 1935 c0 -22 2 -30 4 -17 2 12 2 30 0 40 -3 9 -5 -1 -4 -23z"/>
 <path d="M7200 1403 l-55 -58 58 55 c53 50 62 60 54 60 -1 0 -27 -26 -57 -57z"/>
 <path d="M4617 1123 c18 -2 50 -2 70 0 21 2 7 4 -32 4 -38 0 -55 -2 -38 -4z"/>
 <path d="M4873 1123 c15 -2 39 -2 55 0 15 2 2 4 -28 4 -30 0 -43 -2 -27 -4z"/>
 <path d="M4333 1113 c26 -2 67 -2 90 0 23 2 2 3 -48 3 -49 0 -68 -1 -42 -3z"/>
 <path d="M5043 1113 c9 -2 25 -2 35 0 9 3 1 5 -18 5 -19 0 -27 -2 -17 -5z"/>
 <path d="M5838 1103 c12 -2 30 -2 40 0 9 3 -1 5 -23 4 -22 0 -30 -2 -17 -4z"/>
 <path d="M5368 1093 c56 -2 148 -2 205 0 56 1 10 3 -103 3 -113 0 -159 -2 -102 -3z"/>
 </g>

</svg>
