<?xml version="1.0" standalone="no"?>
<!DOCTYPE svg PUBLIC "-//W3C//DTD SVG 1.1//EN" "http://www.w3.org/Graphics/SVG/1.1/DTD/svg11.dtd" >
<svg xmlns="http://www.w3.org/2000/svg">
<metadata>
This is a custom SVG webfont generated by Font Squirrel.
Copyright   : Created by gluk glukszawppl  wwwglukfontspl with FontForge
Designer    : gluk
Foundry     : gluk
Foundry URL : httpwwwglukfontspl
</metadata>
<defs>
<font id="YokaweradRegular" horiz-adv-x="2088" >
<font-face units-per-em="2048" ascent="1556" descent="-492" />
<missing-glyph horiz-adv-x="819" />
<glyph unicode=" "  horiz-adv-x="819" />
<glyph unicode="&#x09;" horiz-adv-x="819" />
<glyph unicode="&#xa0;" horiz-adv-x="819" />
<glyph unicode="!" horiz-adv-x="655" d="M82 1331v209l16 16h459l16 -16v-209q0 -66 -40.5 -324.5t-40.5 -457.5l-17 -17h-295l-16 17q0 199 -41 458t-41 324zM164 16v213l57 58h213l58 -58v-213l-58 -57h-213z" />
<glyph unicode="&#x22;" horiz-adv-x="901" d="M94 1536l12 16l275 17l20 -17v-96q0 -102 -8 -226t-16 -149l-21 -16h-229l-12 16v279q0 119 -21 176zM504 1536l12 16l275 17l20 -17v-96q0 -102 -8.5 -226t-16.5 -149l-20 -16h-229l-13 16v279q0 119 -20 176z" />
<glyph unicode="#" horiz-adv-x="1105" d="M39 426l12 131l19 16h227l20 246h-229l-14 17l12 131l18 16h228l20 229l19 17h131l14 -17l-20 -229h163l21 229l18 17h131l15 -17l-21 -229h230l14 -16l-12 -131l-19 -17h-227l-21 -246h230l14 -16l-12 -131l-19 -16h-227l-20 -230l-19 -16h-131l-14 16l20 230h-164 l-20 -230l-18 -16h-132l-14 16l21 230h-230zM461 573h164l20 246h-164z" />
<glyph unicode="$" horiz-adv-x="1679" d="M68 518l47 6l37 -12q53 -129 175 -214t267 -126v369q-117 35 -197 66.5t-160.5 81.5t-121.5 121t-41 163q0 145 140 264t380 160v155l4 4h74l4 -4v-145q61 6 127 6q47 0 119 -10v149l4 4h73l5 -4v-163q150 -23 190 -23q98 0 131 47h94l17 -14l39 -406l-76 -6l-19 12 q-90 215 -376 306v-324l34 -10q261 -83 340 -122q227 -131 236 -337q0 -182 -161 -296t-449 -144v-150l-5 -4h-73l-4 4v144q-90 -4 -138 -5q-53 0 -108 7v-146l-4 -4h-74l-4 4v156q-41 6 -155.5 28.5t-157.5 22.5q-59 0 -80 -20h-82l-17 14zM465 1194q0 -61 129 -104v221 q-129 -43 -129 -117zM676 154q68 -10 108 -11q96 0 138 4v310q-144 34 -246 61v-364zM676 1065l246 -61v323q-57 12 -117 12q-80 0 -129 -8v-266zM1004 158q240 35 239 127q0 49 -61 83.5t-178 67.5v-278z" />
<glyph unicode="%" horiz-adv-x="2048" d="M82 1190q0 166 118.5 286.5t293.5 120.5q166 0 286.5 -118.5t120.5 -292.5q0 -166 -119 -287t-293 -121q-166 0 -286.5 119t-120.5 293zM287 143l1296 1356l178 -170l-1296 -1356zM367 1032q0 -172 120 -172q113 0 119 180l10 287v16q1 173 -120 173q-113 0 -119 -181 l-10 -286v-17zM1147 289q0 166 118.5 286.5t293.5 120.5q166 0 286.5 -118.5t120.5 -292.5q0 -166 -119 -287t-293 -121q-166 0 -286.5 119t-120.5 293zM1432 129q0 -170 120 -170q113 0 119 180l10 287v18q1 170 -120 170q-113 0 -119 -180l-10 -287v-18z" />
<glyph unicode="&#x26;" horiz-adv-x="2293" d="M57 401q0 166 158 290t397 165q-76 115 -75 221q0 162 160.5 259.5t426.5 97.5q354 0 355 -232q0 -115 -57.5 -198.5t-161.5 -124.5l327 -363q25 88 25 213q0 129 -33 342l14 12l201 -49l244 -59q203 -47 203 -191q0 -47 -25 -106l-23 -19l-307 -32l-6 10 q37 45 64.5 107.5t27.5 107.5q0 53 -43 66l-129 30q-8 -266 -147 -504l223 -245q41 -47 143 -47q47 0 170 18l19 -14l6 -45l-12 -19q-29 -6 -239 -59t-298 -53q-162 0 -315 126q-215 -141 -596 -141q-309 0 -503 119t-194 317zM514 561q0 -205 143.5 -347t337.5 -142 q137 0 289 96l-598 598q-19 19 -27 29q-145 -55 -145 -234zM1104 1167q0 -96 100 -223q193 72 193 262q0 55 -37 91t-94 36q-66 0 -114 -42t-48 -124z" />
<glyph unicode="'" horiz-adv-x="491" d="M94 1536l12 16l275 17l20 -17v-96q0 -102 -8 -226t-16 -149l-21 -16h-229l-12 16v279q0 119 -21 176z" />
<glyph unicode="(" horiz-adv-x="942" d="M82 655.5q0 184.5 67.5 348t185.5 286.5t253 213t293 156l41 -70q-117 -80 -212.5 -366.5t-95.5 -567.5q0 -283 96.5 -579.5t211.5 -374.5l-41 -70q-156 66 -293 159t-254 220t-184.5 294t-67.5 351.5z" />
<glyph unicode=")" horiz-adv-x="942" d="M20 -299q115 78 211.5 375t96.5 579q0 281 -95.5 567.5t-212.5 366.5l41 70q158 -66 293 -156t253 -213t185.5 -286.5t67.5 -348t-67.5 -351.5t-184 -294t-254 -220t-293.5 -159z" />
<glyph unicode="*" horiz-adv-x="942" d="M55 1239q0 125 101 197q47 -14 104 -87t107 -102l84 -47l4 4l-19 92q-12 57 -62 134t-50 126q77 50 147 50t147 -50q0 -49 -50 -125.5t-62 -134.5l-19 -92l5 -4l83 47q49 29 106.5 101.5t104.5 87.5q100 -72 101 -197q0 -37 -10 -84q-25 -6 -48 -6q-29 0 -95 17.5 t-109 17.5q-18 0 -29 -2l-94 -11l-2 -6l69 -63q43 -39 129 -72t115 -72q-53 -160 -238 -174q-29 39 -33.5 132.5t-27.5 144.5l-39 86h-8l-39 -86q-23 -51 -28 -144.5t-33 -132.5q-184 14 -238 174q29 39 115 72t129 72l69 63l-2 6l-94 11q-10 2 -29 2q-43 0 -109.5 -17.5 t-94.5 -17.5q-23 0 -47 6q-10 47 -11 84z" />
<glyph unicode="+" horiz-adv-x="1146" d="M82 672v131l16 16l394 -16l16 16l-16 393l16 17h131l16 -17l-16 -393l16 -16l394 16l16 -16v-131l-16 -17l-394 17l-16 -17l16 -393l-16 -16h-131l-16 16l16 393l-16 17l-394 -17z" />
<glyph unicode="," horiz-adv-x="491" d="M82 16v213l57 58h213l58 -58v-213q0 -84 -45.5 -177t-100.5 -148l-24 -2l-80 65v23q20 20 55 87.5t35 94.5h-111z" />
<glyph unicode="-" horiz-adv-x="737" d="M82 590v213l16 16h541l16 -16v-213l-16 -17h-541z" />
<glyph unicode="." horiz-adv-x="491" d="M82 16v213l57 58h213l58 -58v-213l-58 -57h-213z" />
<glyph unicode="/" horiz-adv-x="1310" d="M14 -39l1078 1684l206 -134l-1077 -1683z" />
<glyph unicode="0" horiz-adv-x="1781" d="M72 737q0 340 225 549t594 209t594 -209t225 -549t-225 -548.5t-594 -208.5t-594 208.5t-225 548.5zM645 358q0 -154 74 -220t172 -66t172 66.5t74 219.5v758q0 154 -74 220.5t-172 66.5t-172 -66.5t-74 -220.5v-758zM768 662v151l47 47h152l47 -47v-151l-47 -48h-152z " />
<glyph unicode="1" horiz-adv-x="1187" d="M98 1147l2 70l17 16l661 262h189l14 -14q-18 -147 -18 -166v-1233q76 0 139 12l33 6l16 -14l-4 -72l-17 -16l-454 12l-496 -12l-16 16l-4 72l16 14l33 -6q63 -12 180 -12v1089q-72 0 -242 -32l-32 -6z" />
<glyph unicode="2" horiz-adv-x="1720" d="M82 4v279q104 109 276 226.5t301 195t226.5 179t97.5 201.5q0 147 -81 237.5t-214 90.5q-360 0 -432 -338l-20 -12l-144 4l35 330l18 16q70 0 264.5 41t327.5 41q369 0 594 -112.5t225 -297.5q0 -129 -103 -237.5t-270 -187t-340 -143t-353.5 -136.5t-268.5 -135l37 -6 l619 88q47 6 191 30.5t243.5 38t152.5 13.5h123l-59 -406l-21 -16q-442 14 -606 14h-166l-637 -14z" />
<glyph unicode="3" horiz-adv-x="1720" d="M20 408l144 4l20 -13q23 -84 70 -148.5t97 -98t110.5 -56t102.5 -29t83 -6.5q207 0 333 90.5t126 237.5q0 150 -112.5 240t-297.5 90h-75l-17 16v56l17 16h24q143 0 230.5 82t87.5 217q0 139 -83 223t-221 84q-49 0 -100 -12t-116.5 -44t-123 -104.5t-94.5 -177.5 l-20 -12l-144 4l35 330l19 16q72 0 297 41t346 41q332 0 534.5 -106.5t202.5 -282.5q0 -98 -103.5 -181t-273.5 -130v-7q244 -39 402.5 -148.5t158.5 -250.5q0 -184 -259 -296.5t-683 -112.5q-133 0 -363.5 40.5t-299.5 40.5l-19 17z" />
<glyph unicode="4" horiz-adv-x="1884" d="M41 307v125q451 268 451 885q0 37 -2.5 69.5t-4.5 52.5l-2 19l17 17h549l16 -17q0 -104 -7 -182t-37 -182.5t-83 -194.5t-150.5 -198.5t-234.5 -217.5l-135 -106v-6l565 2q322 205 447 692h131l14 -14q-18 -147 -19 -166v-500q90 6 179.5 15.5t115.5 9.5l-18 -105 l-18 -16q-121 2 -259 2v-209q96 0 160 12l33 6l16 -14l-4 -72l-16 -16l-475 12l-475 -12l-17 16l-4 72l17 14l32 -6q63 -12 160 -12v209h-926z" />
<glyph unicode="5" horiz-adv-x="1720" d="M41 408l164 4l20 -13q23 -104 75 -176.5t120.5 -104.5t122 -44.5t104.5 -12.5q205 0 311.5 107.5t106.5 312.5t-107.5 312.5t-310.5 107.5q-145 0 -294.5 -62.5t-217.5 -136.5l-74 -2l-16 17l8 127l37 614l16 17h672l727 20l21 -16l-41 -342h-119q-164 10 -637 10h-512 l-16 -273q211 109 495 109q258 0 468 -56.5t342 -175t132 -280.5q0 -221 -247.5 -356t-653.5 -135q-133 0 -353 40.5t-290 40.5l-18 17z" />
<glyph unicode="6" horiz-adv-x="1802" d="M82 737q0 336 244.5 547t617.5 211q88 0 306 -41t296 -41l19 -16l34 -330l-143 -4l-20 12q-37 106 -94.5 177t-128 104t-133 45t-138.5 12q-131 0 -197.5 -110.5t-82.5 -356.5q193 57 321 58q233 0 403 -51.5t272.5 -169t102.5 -291.5q0 -229 -225 -370.5t-594 -141.5 h-41q-369 0 -594 208.5t-225 548.5zM655 348q0 -129 74 -208t192.5 -79t192.5 79t74 208v287q0 131 -76 203.5t-164 72.5q-80 0 -291 -59q-2 -39 -2 -115v-389z" />
<glyph unicode="7" horiz-adv-x="1679" d="M63 1065l66 414l18 16q537 -20 701 -20h774l16 -17v-53l-127 -152q-184 -215 -304 -394t-171 -314t-67.5 -221t-16.5 -185q0 -61 6 -123l-16 -16h-547l-16 16q0 86 6 154t27.5 131.5t41 109.5t67.5 104t83 95t114 103.5t133 109.5t166.5 131t192.5 152l45 37v6l-436 -2 q-147 0 -254.5 -13.5t-220.5 -37t-162 -31.5h-119z" />
<glyph unicode="8" horiz-adv-x="1802" d="M41 389q0 156 158.5 244t437.5 137v4q-158 39 -274.5 128t-116.5 204q0 178 173 283.5t482 105.5t482 -105.5t173 -283.5q0 -115 -116.5 -204t-274.5 -128v-4q279 -49 437.5 -137t158.5 -244q0 -184 -227 -296.5t-600 -112.5h-66q-373 0 -600 112.5t-227 296.5zM614 389 q0 -160 74 -244t213 -84t213 84t74 244q0 164 -74 251t-213 87t-213 -87t-74 -251zM696 1106q0 -145 52.5 -221t152.5 -76t152.5 76t52.5 221q0 307 -205 307t-205 -307z" />
<glyph unicode="9" horiz-adv-x="1802" d="M41 983q0 229 225.5 370.5t593.5 141.5h41q369 0 594 -209t225 -549q0 -336 -244.5 -546.5t-617.5 -210.5q-88 0 -306 40.5t-296 40.5l-18 17l-35 330l143 4l21 -13q37 -106 94 -176.5t127.5 -103.5t133 -45.5t138.5 -12.5q131 0 197.5 111t83.5 356q-193 -57 -322 -57 q-233 0 -403 51t-272.5 169t-102.5 292zM614 840q0 -131 76 -204t164 -73q80 1 291 60q2 39 2 114v389q0 129 -74 208t-192.5 79t-192.5 -79t-74 -208v-286z" />
<glyph unicode=":" horiz-adv-x="491" d="M82 16v213l57 58h213l58 -58v-213l-58 -57h-213zM82 918v212l57 58h213l58 -58v-212l-58 -58h-213z" />
<glyph unicode=";" horiz-adv-x="491" d="M82 16v213l57 58h213l58 -58v-213q0 -84 -45.5 -177t-100.5 -148l-24 -2l-80 65v23q20 20 55 87.5t35 94.5h-111zM82 918v212l57 58h213l58 -58v-212l-58 -58h-213z" />
<glyph unicode="&#x3c;" horiz-adv-x="983" d="M41 662v147l846 522l14 -8v-342l-725 -242v-8l725 -242v-342l-14 -8z" />
<glyph unicode="=" horiz-adv-x="1310" d="M82 369v245h1147v-245h-1147zM82 860v246h1147v-246h-1147z" />
<glyph unicode="&#x3e;" horiz-adv-x="983" d="M82 147v342l725 242v8l-725 242v342l14 8l846 -522v-147l-846 -523z" />
<glyph unicode="?" horiz-adv-x="1269" d="M57 1149l27 330l14 16q74 0 226.5 41t248.5 41q274 0 444.5 -97.5t170.5 -250.5q0 -145 -88 -236.5t-277 -201.5q-41 -23 -60.5 -56t-22.5 -57.5t-3 -73.5v-55l-16 -17h-295l-16 17v156q0 70 37.5 131t92 108t108.5 93t92 105.5t38 127.5q0 100 -67.5 162.5t-175.5 62.5 q-268 0 -322 -338l-12 -12zM410 16v213l57 58h213l57 -58v-213l-57 -57h-213z" />
<glyph unicode="@" horiz-adv-x="1843" d="M41 440q0 262 135 485.5t366.5 353.5t506.5 130q311 0 532 -208t221 -503q0 -217 -144.5 -371.5t-348.5 -154.5q-104 0 -178 60.5t-74 148.5h-4q-47 -98 -128 -153.5t-163 -55.5q-199 0 -302.5 77t-103.5 222q0 203 135.5 327t360.5 124q57 0 129 -33t100 -33 q55 0 102.5 21t61.5 41l211 -9l8 -10l-11 -48q-11 -48 -13 -58l-88 -535q152 0 260 126t108 306q0 264 -200.5 450.5t-485.5 186.5q-377 0 -644 -257t-267 -621q0 -279 203.5 -476.5t490.5 -197.5q231 0 445 106l30 -71q-236 -117 -485 -117q-315 0 -540.5 219t-225.5 528z M709 358q0 -63 21.5 -87.5t64.5 -24.5q74 0 150.5 82t94.5 219l31 235q-45 0 -108.5 33t-94.5 33q-100 0 -125 -172q-35 -291 -34 -318z" />
<glyph unicode="A" horiz-adv-x="2068" d="M20 86q141 186 310.5 487t285.5 574l142 330l102 -2l494 20q0 -18 45 -143l499 -1164q47 -108 136 -108h2l12 -17l-2 -49l-18 -16l-445 12l-407 -12l-17 16l-4 60l16 14q33 -8 46 -8q29 0 28 35q0 12 -4 24l-166 383q-203 12 -270 13h-367q-37 -104 -37 -201 q0 -109 52.5 -174.5t158.5 -65.5q8 0 15.5 1t16.5 3t15 2l17 -14l-8 -72l-17 -16l-332 12l-276 -12l-16 16zM481 637q252 -25 324 -25q43 1 227 11l-262 600h-25z" />
<glyph unicode="B" horiz-adv-x="2109" d="M37 88l16 12l37 -8q74 -14 156 -14v1319q-82 0 -156 -15l-37 -8l-16 12l4 72l16 17l1110 20q313 0 505 -106.5t192 -282.5q0 -100 -102.5 -183t-274.5 -132q246 -39 403.5 -150t157.5 -252q0 -184 -191.5 -296.5t-504.5 -112.5l-1295 20l-16 16zM901 70l82 -2 q199 0 304.5 81.5t105.5 239.5q0 162 -104.5 246t-305.5 84l-82 -2v-647zM901 807h31q166 0 241.5 74.5t75.5 224.5q0 147 -78.5 224t-228.5 77l-41 -2v-598z" />
<glyph unicode="C" horiz-adv-x="1802" d="M61 737q0 340 270.5 549t712.5 209q98 0 257 -20.5t204 -20.5q86 0 103 41h82l18 -16l43 -437h-129l-20 13q-29 106 -93.5 181t-142.5 108.5t-140.5 46t-119.5 12.5q-190 0 -289.5 -171t-99.5 -495q0 -319 110.5 -492t319.5 -173q164 0 305 89t225 199l23 -2l51 -49 l-2 -22q-98 -125 -261 -216t-341 -91q-487 0 -786.5 208.5t-299.5 548.5z" />
<glyph unicode="D" horiz-adv-x="2170" d="M37 104l53 -12q74 -14 156 -14v1319q-82 0 -156 -15l-53 -12l4 105l1229 20q369 0 594 -209t225 -549t-225.5 -548.5t-593.5 -208.5l-1229 20zM901 70l103 -2q430 0 430 669.5t-430 669.5l-103 -2v-1335z" />
<glyph unicode="E" horiz-adv-x="1966" d="M37 88l16 14l33 -6q74 -14 160 -14v1311q-86 0 -160 -15l-33 -6l-16 14l4 72l16 17h764l903 20l19 -16l43 -426l-82 -6l-23 12q-43 104 -123.5 174t-192.5 102.5t-218.5 45t-245.5 12.5l-10 -574h51q41 0 79 17.5t71.5 59.5t50 64.5t48.5 79.5l32 58l22 6l64 -14v-623 l-64 -14l-22 6l-32 57q-32 57 -48.5 79.5t-50 64.5t-71.5 59.5t-79 17.5h-51l10 -655q190 0 377.5 52t334 157.5t193.5 245.5l21 14l86 -2l14 -19l-43 -550q-901 20 -1065 20h-762l-16 16z" />
<glyph unicode="F" horiz-adv-x="2007" d="M37 86l16 14l33 -6q63 -12 160 -12v1311q-86 0 -160 -15l-33 -6l-16 14l4 72l16 17h805l1063 20l43 -592l-14 -18l-107 -2l-20 14q-47 139 -197.5 255t-345 178.5t-383.5 62.5l-10 -697h133q68 0 144.5 61.5t119.5 120t78 117.5l23 6l63 -14v-663l-63 -15l-23 6 q-35 59 -78 118t-119.5 120t-144.5 61h-133l10 -532q96 0 160 12l33 6l16 -14l-4 -72l-16 -16l-517 12l-516 -12l-16 16z" />
<glyph unicode="G" d="M61 782q0 322 275.5 517.5t728.5 195.5q63 0 216 -20.5t212 -20.5q98 0 115 41h82l18 -16l43 -437h-129l-20 13q-29 102 -89.5 176t-130 108.5t-128 49t-107.5 14.5q-209 0 -319.5 -162t-110.5 -461q0 -340 84 -519t243 -179q127 0 197 72.5t70 173.5v319l-332 -2l-16 17 v59l16 16l496 -10l577 10l16 -16v-57l-16 -17h-168v-651l-16 -16h-312q0 70 -26.5 117.5t-65.5 47.5q-27 0 -67 -26q-208 -139 -353 -139q-442 0 -712.5 221t-270.5 581z" />
<glyph unicode="H" horiz-adv-x="2375" d="M37 86l16 14l33 -6q63 -12 160 -12v1311q-96 0 -160 -13l-33 -6l-16 15l4 71l16 17l516 -13l496 13l16 -17l5 -71l-17 -15l-33 6q-63 12 -139 13l-6 -568q246 -8 293 -8q51 0 297 8l-10 568q-76 0 -140 -13l-32 -6l-17 15l4 71l17 17l495 -13l516 13l17 -17l4 -71 l-17 -15l-32 6q-63 12 -160 13v-1311q96 0 160 12l32 6l17 -14l-4 -72l-17 -16l-516 12l-495 -12l-17 16l-4 72l17 14l32 -6q63 -12 140 -12l10 651q-184 6 -297 6q-109 0 -293 -6l6 -651q76 0 139 12l33 6l17 -14l-5 -72l-16 -16l-496 12l-516 -12l-16 16z" />
<glyph unicode="I" horiz-adv-x="1146" d="M37 86l16 14l33 -6q63 -12 160 -12v1311q-96 0 -160 -13l-33 -6l-16 15l4 71l16 17l516 -13l517 13l16 -17l4 -71l-16 -15l-33 6q-63 12 -160 13v-1311q96 0 160 12l33 6l16 -14l-4 -72l-16 -16l-517 12l-516 -12l-16 16z" />
<glyph unicode="J" horiz-adv-x="1228" d="M57 1389l4 71l17 17l577 -13l516 13l17 -17l4 -71l-16 -15l-33 6q-63 12 -160 13v-840q0 -281 -232.5 -427t-678.5 -146l-11 10v61l11 10q215 0 345 80t130 213q0 90 -54.5 144.5t-144.5 54.5l-20 20v820q-158 0 -222 -13l-32 -6z" />
<glyph unicode="K" horiz-adv-x="2293" d="M37 86l16 14l33 -6q63 -12 160 -12v1311q-96 0 -160 -13l-33 -6l-16 15l4 71l16 17l516 -7l455 7l16 -17l5 -63l-17 -15l-33 7q-25 4 -98 4l-8 -553h74l417 503q10 10 11 29q0 12 -9.5 44t-9.5 52l17 17l761 -10l17 -17v-49l-17 -16q-33 0 -112.5 -29t-149.5 -70 l-831 -489v-4q53 -27 231 -27q133 0 270.5 15.5t174.5 33.5l22 -8l289 -645q35 -80 141 -80l105 2v-61l-727 -88l-23 -2q-25 0 -57.5 29.5t-63.5 86.5l-245 492q-94 184 -287 205l10 -672q96 0 160 12l33 6l16 -14l-4 -72l-16 -16l-517 12l-516 -12l-16 16z" />
<glyph unicode="L" horiz-adv-x="1966" d="M37 88l16 14l33 -6q74 -14 160 -14v1311q-96 0 -160 -13l-33 -6l-16 15l4 71l16 17l516 -13l517 13l16 -17l4 -71l-16 -15l-33 6q-63 12 -160 13v-1311q186 0 371.5 62.5t326 178t187.5 255.5l20 14l107 -2l14 -19l-43 -591q-819 20 -983 20h-844l-16 16z" />
<glyph unicode="M" horiz-adv-x="2703" d="M37 86l16 14q29 -4 43 -4q145 0 150 232l20 946q0 82 -40 110.5t-148 28.5l-17 17v28l17 17h866l406 -748l403 748h832l16 -17v-28l-16 -17q-109 0 -149 -28.5t-40 -110.5l21 -946q4 -231 149 -232q14 0 43 4l17 -14l-5 -72l-16 -16l-516 12l-516 -12l-17 16l-4 72l17 14 q29 -4 45 -4q147 0 147 232l-20 909l-332 -614q0 -88 -33 -178.5t-70.5 -154t-70.5 -144t-33 -150.5l-20 -16h-123l-23 20l-667 1237l-21 -707q0 -233 67.5 -334.5t207.5 -101.5q25 0 53 6l16 -14l-6 -72l-16 -16l-394 12l-219 -12l-16 16z" />
<glyph unicode="N" horiz-adv-x="2048" d="M37 86l16 14q31 -6 45 -6q147 0 148 234v946q0 82 -40 110.5t-149 28.5l-16 17v28l16 17h867l774 -1207h2v633q0 131 -32 229.5t-82 149.5t-101 75.5t-101 24.5h-18l-35 -6l-16 15l6 71l16 17l445 -13l209 13l16 -17l4 -71l-16 -15q-23 8 -49 8q-53 0 -98.5 -55 t-45.5 -180v-1147h-102h-561l-791 1237v-664q0 -131 32 -229t82 -149.5t101 -76t101 -24.5q29 0 53 6l16 -14l-6 -72l-16 -16l-445 12l-209 -12l-16 16z" />
<glyph unicode="O" d="M61 737q0 340 270.5 549t713 209t713 -209t270.5 -549t-270.5 -548.5t-713 -208.5t-713 208.5t-270.5 548.5zM717 737.5q0 -360.5 83.5 -513t284.5 -152.5q156 0 221.5 152.5t65.5 513t-84 513t-284 152.5q-156 0 -221.5 -152.5t-65.5 -513z" />
<glyph unicode="P" horiz-adv-x="2109" d="M37 86l16 14l33 -6q63 -12 160 -12v1315q-82 0 -156 -15l-37 -8l-16 12l4 72l16 17l1254 20h26q346 0 528.5 -131t182.5 -381t-189.5 -381t-547.5 -131l-410 6v-395q96 0 160 12l33 6l16 -14l-4 -72l-16 -16l-517 12l-516 -12l-16 16zM901 561l41 -2q219 0 335 108.5 t116 315.5t-116 315.5t-335 108.5l-41 -2v-844z" />
<glyph unicode="Q" d="M61 737q0 340 270.5 549t713 209t713 -209t270.5 -549t-270.5 -548.5t-713 -208.5t-713 208.5t-270.5 548.5zM717 737.5q0 -358.5 83.5 -507t284.5 -148.5q158 0 222.5 148.5t64.5 507t-84 507t-284 148.5q-158 0 -222.5 -148.5t-64.5 -507zM786 -74l254 2 q74 0 143.5 -49t140.5 -98t146 -49q80 0 128.5 21.5t48.5 58.5h61q0 -150 -70.5 -227t-203.5 -77q-111 0 -235 51.5t-231.5 102.5t-181.5 51v213z" />
<glyph unicode="R" horiz-adv-x="2211" d="M37 86l16 14l33 -6q63 -12 160 -12v1315q-82 0 -156 -15l-37 -8l-16 12l4 72l16 17l1418 20q240 0 386 -119t146 -311q0 -195 -212 -331t-456 -140v-6q39 -27 193 -50.5t309 -23.5l105 -303q41 -123 208 -123l58 4v-61l-729 -88l-23 -2q-25 0 -57.5 29.5t-63.5 86.5 l-153 353q-49 115 -110.5 150.5t-184.5 39.5l10 -518q96 0 160 12l33 6l16 -14l-4 -72l-16 -16l-517 12l-516 -12l-16 16zM891 684l51 -2q201 0 305.5 98.5t104.5 284.5q0 168 -104.5 255t-305.5 87l-41 -2z" />
<glyph unicode="S" horiz-adv-x="1853" d="M74 494h104l29 -17q57 -139 179 -237.5t248 -138.5t247 -40q244 0 377 46.5t133 113.5q0 29 -18.5 53.5t-57.5 46t-83 39t-109.5 35t-121 31.5t-136.5 33.5t-136 36.5q-137 37 -237.5 76.5t-197.5 101t-149.5 147.5t-52.5 193q0 195 222.5 338t586.5 143q106 0 266 -22.5 t203 -22.5q88 0 113 45h133l18 -16l41 -451h-112l-21 12q-43 104 -129 182t-184.5 116t-180 56.5t-145.5 18.5q-182 0 -279.5 -44t-97.5 -107q0 -37 34 -65t102.5 -50.5t140 -39.5t178 -44t186.5 -51q90 -29 134.5 -44.5t125 -46t122.5 -56t98.5 -67.5t85 -86t49 -103.5 t20.5 -129.5q0 -240 -245.5 -369.5t-675.5 -129.5q-98 0 -279.5 35.5t-236.5 35.5q-72 0 -97 -31h-133l-18 17z" />
<glyph unicode="T" horiz-adv-x="2048" d="M18 1069l41 410l19 16q535 -20 698 -20h496l698 20l19 -16l41 -410l-15 -18l-102 -7q-92 223 -199.5 286t-361.5 63v-1311q96 0 159 12l33 6l17 -14l-5 -72l-16 -16l-516 12l-516 -12l-16 16l-5 72l17 14l33 -6q63 -12 159 -12v1311q-254 0 -361.5 -62.5t-199.5 -286.5 l-102 7z" />
<glyph unicode="U" d="M31 1389l4 71l16 17l543 -13l434 13l16 -17l5 -71l-17 -15l-33 6q-63 12 -118 13v-942q0 -190 78.5 -290t228.5 -100q258 0 415.5 106.5t157.5 283.5v491q0 248 -81 343t-193 95q-23 0 -53 -6l-17 15l6 71l17 17l424 -13l188 13l16 -17l5 -71l-17 -15q-33 8 -49 8 q-53 0 -98 -55t-45 -180v-698q0 -219 -186.5 -354.5t-489.5 -135.5q-469 0 -716 126t-247 366v942q-82 0 -145 -13l-33 -6z" />
<glyph unicode="V" horiz-adv-x="2048" d="M14 1399v49l17 16l745 21h10q39 0 39 -29q0 -47 31 -121l471 -1083h21l219 487q45 98 45 234q0 166 -76 286.5t-199 120.5q-8 0 -15 -1t-16.5 -3t-15.5 -2l-16 15l8 71l16 15l435 -11l276 11l16 -15l7 -71q-74 -96 -195 -300t-186 -354l-316 -737l-10 -14l-582 -4 q0 39 -45 143l-499 1163q-43 96 -168 96z" />
<glyph unicode="W" horiz-adv-x="3092" d="M14 1399v49l17 16l745 21h10q39 0 39 -29q0 -43 31 -121l430 -1083h10l193 487q49 121 49 265q0 158 -61.5 267t-176.5 109q-8 0 -15 -1t-16 -3t-16 -2l-16 15l8 71l17 15l393 -11l276 11l17 -15q10 -80 30 -125l430 -1083h11l192 487q49 121 49 265q0 158 -61.5 267 t-175.5 109q-8 0 -15.5 -1t-16.5 -3t-15 -2l-17 15l8 71l17 15l393 -11l277 11l16 -15l6 -71q-86 -115 -206 -310.5t-175 -343.5l-274 -737l-17 -14l-579 -4q0 27 -45 143l-224 567l-258 -692l-16 -14l-580 -4q0 27 -45 143l-458 1163q-39 96 -168 96z" />
<glyph unicode="X" horiz-adv-x="2007" d="M20 86q37 47 91.5 89t171 131t252.5 212l182 160l-502 608q-6 8 -30.5 40t-36 42t-38 23.5t-59.5 13.5l-16 14v29l16 16q739 20 740 21q14 0 23 -9.5t12 -19.5t10 -33q13 -57 36 -88l338 -444l119 102q125 106 125 221q0 74 -56.5 120t-156.5 46q-8 0 -15 -1t-16.5 -3 t-15.5 -2l-16 15l8 71l16 17l434 -13l277 13l16 -17l6 -71q-31 -39 -68.5 -76t-79.5 -70t-137.5 -111.5t-201.5 -170.5l-174 -150l522 -635q4 -6 18.5 -24.5t20.5 -24.5l21 -21q14 -14 23 -20t24.5 -14.5t32 -11.5t34.5 -3l17 -14v-29l-17 -16l-749 -21q-14 0 -23.5 9.5 t-12.5 19.5t-9 33q-14 57 -37 88l-359 469l-133 -115q-133 -115 -133 -231q0 -68 52 -112t149 -44q8 0 15 1t16.5 3t15.5 2l16 -14l-8 -72l-16 -16l-435 12l-276 -12l-16 16z" />
<glyph unicode="Y" horiz-adv-x="2007" d="M14 1399v49l17 16l737 21q25 0 36 -19.5t22.5 -61.5t25.5 -69l391 -694l12 -41h9l166 229q92 129 92 281q0 117 -58.5 193.5t-160.5 76.5q-8 0 -15.5 -1t-16.5 -3t-16 -2l-16 15l8 71l17 17l434 -13l276 13l17 -17l6 -71q-27 -35 -99.5 -109t-171 -190.5t-204.5 -278.5 l-211 -317v-412q96 0 159 12l33 6l17 -14l-4 -72l-17 -16l-516 12l-516 -12l-16 16l-5 72l17 14l33 -6q63 -12 159 -12v287q0 72 -41 143l-419 774q-29 51 -65 73.5t-99 22.5z" />
<glyph unicode="Z" horiz-adv-x="1925" d="M55 16v35q33 68 125 185l791 1005q23 29 56.5 65.5t55.5 59.5l23 23v6l-287 -2q-276 -2 -432 -100.5t-252 -329.5l-78 6l43 510l19 16q537 -20 700 -20h1000l16 -17v-43q-39 -37 -127 -162l-815 -1040q-23 -27 -53.5 -58.5t-49.5 -50.5l-20 -18v-6l141 2h195 q281 0 445.5 100.5t258.5 329.5l78 -6l-43 -510l-18 -16q-557 20 -721 20h-1034z" />
<glyph unicode="[" horiz-adv-x="983" d="M154 -330q0 14 5 67.5t5 98.5v1639q0 45 -5 98t-5 67l256 -12l516 12l16 -16l4 -72l-16 -14l-33 6q-63 12 -160 12v-1802q96 0 160 13l33 6l16 -15l-4 -71l-16 -17l-516 13z" />
<glyph unicode="\" horiz-adv-x="1310" d="M12 1511l207 134l1077 -1684l-206 -133z" />
<glyph unicode="]" horiz-adv-x="983" d="M37 -242l16 15l33 -6q64 -13 160 -13v1802q-96 0 -160 -12l-33 -6l-16 14l4 72l16 16l516 -12l256 12q0 -14 -5 -67t-5 -98v-1639q0 -45 5 -98t5 -68l-256 13l-516 -13l-16 17z" />
<glyph unicode="^" horiz-adv-x="1392" d="M61 997l562 580h147l561 -580l-8 -14h-383l-240 500h-8l-239 -500h-383z" />
<glyph unicode="_" horiz-adv-x="1617" d="M82 -287h1393v-164h-1393v164z" />
<glyph unicode="`" horiz-adv-x="819" d="M41 1634l51 64h445l215 -455l-11 -14h-98z" />
<glyph unicode="a" horiz-adv-x="1966" d="M82 532.5q0 270.5 178 411.5t518 141q92 0 209 -51t160 -51q84 0 155.5 33t90.5 63l331 -14l15 -14q-18 -147 -19 -166v-805q76 0 140 12l32 6l17 -14l-2 -70l-17 -16l-374 12l-263 -22l-14 14q0 12 -20.5 151.5t-20.5 151.5h-6q-55 -154 -170 -239.5t-244 -85.5 q-340 0 -518 141t-178 411.5zM655 348q0 -162 40 -224.5t124 -62.5q115 0 220.5 129t107.5 342v369q-72 0 -179.5 51.5t-154.5 51.5q-158 0 -158 -287v-369z" />
<glyph unicode="b" horiz-adv-x="1884" d="M16 1430l2 69l17 17l375 -11l329 25l15 -14q-16 -131 -17 -164l-4 -285q-2 -14 -8 -233q63 121 165.5 186t215.5 65q340 0 518 -141t178 -411.5t-178 -411.5t-518 -141q-92 0 -209 51t-160 51q-35 0 -63.5 -32t-28.5 -50l-14 -14q-252 14 -262 14h-205v1434 q-33 0 -98 -13l-33 -6zM737 164q72 0 179.5 -51.5t154.5 -51.5q80 0 119 66t39 221v359q0 162 -40 224t-124 62q-115 0 -220.5 -125t-107.5 -336v-368z" />
<glyph unicode="c" horiz-adv-x="1525" d="M51 532q0 248 226.5 400.5t592.5 152.5q68 0 174.5 -25.5t145.5 -25.5q72 0 106 51h103l18 -16l43 -410l-84 -6l-20 13q-109 317 -424 317q-115 0 -211 -119t-96 -332q0 -227 77 -340.5t218 -113.5q147 0 280 51t199 123l22 2l43 -39l2 -22q-90 -98 -244.5 -155.5 t-351.5 -57.5q-369 0 -594 151.5t-225 400.5z" />
<glyph unicode="d" horiz-adv-x="1966" d="M82 532.5q0 270.5 178 411.5t518 141q109 0 211.5 -63.5t163.5 -177.5h6l-4 57l-8 533q-96 0 -160 -13l-33 -6l-16 15l2 69l16 17l437 -11l331 27l15 -14q-18 -147 -19 -166v-1272q76 0 140 12l32 6l17 -14l-2 -70l-17 -16l-374 12l-263 -22l-14 14q0 14 -20.5 152.5 t-20.5 150.5h-6q-53 -154 -170 -239.5t-244 -85.5q-340 0 -518 141t-178 411.5zM655 348q0 -162 40 -224.5t124 -62.5q115 0 221.5 129t106.5 342q-2 213 -107.5 342.5t-220.5 129.5q-84 0 -124 -62.5t-40 -224.5v-369z" />
<glyph unicode="e" horiz-adv-x="1607" d="M51 532q0 248 226.5 400.5t592.5 152.5q313 0 505 -151.5t192 -401.5l-11 -10q-502 10 -583 10h-348q0 -227 76.5 -340.5t218.5 -113.5q147 0 279 52t198 124l22 2l45 -41l2 -22q-90 -98 -244.5 -155.5t-351.5 -57.5q-369 0 -594 151.5t-225 400.5zM629 637 q311 -27 344 -27q73 0 141 2q-10 184 -72.5 288t-169.5 104q-104 0 -166.5 -97.5t-76.5 -269.5z" />
<glyph unicode="f" horiz-adv-x="1310" d="M37 86l16 14l33 -6q63 -12 160 -12v850l-172 -6l-17 16v74l17 14l172 -2v37q0 221 167 356t447 135q92 0 249 -38.5t202 -42.5v-199l-17 -16h-219l-10 10q0 205 -225 205q-242 0 -242 -211q0 -104 54.5 -170t142.5 -66l335 12l17 -16v-66l-17 -16l-311 -2v-858 q96 0 160 12l33 6l16 -14l-4 -72l-16 -16l-476 12l-475 -12l-16 16z" />
<glyph unicode="g" horiz-adv-x="1951" d="M82 532q0 270 178 411.5t518 141.5q131 0 249 -90t169 -250l2 19q0 14 2 155.5t2 147.5l15 14l258 -22l415 6l17 -16l2 -70l-17 -14l-32 6q-64 12 -140 12v-860q0 -299 -220 -457t-640 -158q-86 0 -317.5 41t-296.5 41v199l16 16h219l11 -10q0 -92 101 -148.5t267 -56.5 q217 0 332 64.5t115 187.5q0 109 -44 174.5t-116 65.5q-43 0 -161 -51t-208 -51q-313 0 -504.5 151.5t-191.5 400.5zM655 369q0 -307 158 -308q47 0 154.5 51.5t179.5 51.5v368q-2 211 -107.5 336t-220.5 125q-84 0 -124 -62.5t-40 -223.5v-338z" />
<glyph unicode="h" horiz-adv-x="2129" d="M37 86l16 14l33 -6q63 -12 160 -12v1352q-76 0 -140 -13l-32 -6l-17 15l2 69l17 17l456 -11l291 27l15 -14q-18 -147 -19 -166l-10 -508h4q61 113 163.5 177t211.5 64q156 0 275.5 -25.5t182 -61t105.5 -71.5t73.5 -61.5t59.5 -25.5v-758q96 0 160 12l33 6l16 -14l-4 -72 l-16 -16l-435 12l-331 -26l-15 14q18 147 19 166v553q0 162 -40 224.5t-124 62.5q-115 0 -221.5 -129.5t-106.5 -342.5v-368q0 -18 19 -166l-15 -14l-331 26l-435 -12l-16 16z" />
<glyph unicode="i" horiz-adv-x="1064" d="M37 86l16 14l33 -6q63 -12 160 -12v901q-76 0 -140 -12l-32 -6l-17 14l2 70l17 16l456 -10l291 26l15 -14q-18 -147 -19 -166v-819q96 0 160 12l33 6l16 -14l-4 -72l-16 -16l-476 12l-475 -12l-16 16zM307 1327v295l58 57h335l58 -57v-295l-58 -57h-335z" />
<glyph unicode="j" horiz-adv-x="1024" d="M-143 -475l2 113l16 14l74 -17q92 -22 184 -22h8q135 0 230.5 79t95.5 191q0 90 -55.5 144.5t-145.5 54.5l-20 20v881q-76 0 -140 -12l-32 -6l-17 14l2 70l17 16l416 -10l331 26l15 -14q-18 -147 -19 -166v-819q0 -287 -196.5 -430.5t-632.5 -143.5h-117zM307 1327v295 l58 57h335l58 -57v-295l-58 -57h-335z" />
<glyph unicode="k" horiz-adv-x="2048" d="M37 86l16 14l33 -6q63 -12 160 -12v1352q-76 0 -140 -13l-32 -6l-17 15l2 69l17 17l416 -11l331 27l15 -14q-18 -147 -19 -166v-717h70l270 299q10 10 10 29q0 12 -9 43.5t-9 52.5l16 16l680 -10l17 -16v-50l-17 -16q-53 0 -262 -98l-604 -289q59 -27 219 -27 q125 0 251 15.5t163 33.5l22 -8l166 -399q57 -129 226 -129h20v-62l-700 -59q-59 0 -119 117l-133 266q-90 178 -277 203v-465q96 0 160 12l33 6l16 -14l-4 -72l-16 -16l-476 12l-475 -12l-16 16z" />
<glyph unicode="l" horiz-adv-x="1064" d="M37 86l16 14l33 -6q63 -12 160 -12v1352q-76 0 -140 -13l-32 -6l-17 15l2 69l17 17l416 -11l331 27l15 -14q-18 -147 -19 -166v-1270q96 0 160 12l33 6l16 -14l-4 -72l-16 -16l-476 12l-475 -12l-16 16z" />
<glyph unicode="m" horiz-adv-x="3028" d="M37 86l16 14l33 -6q63 -12 160 -12v901q-76 0 -140 -12l-32 -6l-17 14l2 70l17 16l416 -6l243 22l15 -14q0 -6 2 -161.5t2 -168.5h8q43 154 145.5 251t229.5 97q129 0 229 -18t157.5 -44t101.5 -67t60.5 -70.5t36 -71.5t29.5 -56q45 145 145.5 236t223.5 91 q152 0 265.5 -25.5t172.5 -61t99 -71.5t70 -61.5t58 -25.5v-758q96 0 160 12l33 6l16 -14l-4 -72l-16 -16l-434 12l-332 -26l-15 14q18 147 19 166v553q0 150 -25.5 218.5t-97.5 68.5q-119 0 -203 -132.5t-84 -318.5v-391q6 -59 19 -164l-15 -14l-290 26l-291 -26l-15 14 q18 147 19 166v553q0 150 -25.5 218.5t-97.5 68.5q-119 0 -203 -132.5t-84 -318.5v-389q0 -18 19 -166l-15 -14l-331 26l-435 -12l-16 16z" />
<glyph unicode="n" horiz-adv-x="2129" d="M37 86l16 14l33 -6q63 -12 160 -12v901q-76 0 -140 -12l-32 -6l-17 14l2 70l17 16l416 -6l258 22l14 -14q0 -6 2 -147.5t2 -155.5h6q55 152 171 236.5t243 84.5q156 0 275.5 -25.5t182 -61t105.5 -71.5t73.5 -61.5t59.5 -25.5v-758q96 0 160 12l33 6l16 -14l-4 -72 l-16 -16l-435 12l-331 -26l-15 14q18 147 19 166v553q0 162 -40 224.5t-124 62.5q-115 0 -221.5 -129.5t-106.5 -342.5v-368q0 -18 19 -166l-15 -14l-331 26l-435 -12l-16 16z" />
<glyph unicode="o" horiz-adv-x="1740" d="M51 532.5q0 249.5 225.5 401t594 151.5t594 -151.5t225.5 -401t-225.5 -401t-594 -151.5t-594 151.5t-225.5 401zM625 348q0 -154 73.5 -220.5t172 -66.5t172 67t73.5 220v369q0 154 -73.5 220.5t-172 66.5t-172 -67t-73.5 -220v-369z" />
<glyph unicode="p" horiz-adv-x="1966" d="M37 -385l16 14l33 -6q63 -12 160 -12v1372q-76 0 -140 -12l-32 -6l-17 14l2 70l17 16l416 -6l253 22l15 -14q0 -14 2 -159.5t2 -162.5h6q51 160 169 250t249 90q340 0 518 -141t178 -411.5t-178 -411.5t-518 -141q-109 0 -211.5 63t-163.5 176l-6 -2l4 -29l8 -577 q96 0 160 12l33 6l16 -14l-4 -72l-16 -16l-476 12l-475 -12l-16 16zM819 532q0 -213 106.5 -342t221.5 -129q84 0 124 62.5t40 224.5v369q0 162 -40 224.5t-124 62.5q-115 0 -220.5 -129.5t-107.5 -342.5z" />
<glyph unicode="q" horiz-adv-x="1966" d="M82 532.5q0 270.5 178 411.5t518 141q131 0 249 -90t169 -250l2 13q0 12 2 157.5t2 151.5l15 14l258 -22l415 6l17 -16l2 -70l-17 -14l-32 6q-63 12 -140 12v-1372q96 0 160 12l33 6l16 -14l-4 -72l-16 -16l-473 12l-291 -26l-15 14q18 147 19 166l6 530 q-63 -117 -165.5 -180t-211.5 -63q-340 0 -518 141t-178 411.5zM655 348q0 -162 40 -224.5t124 -62.5q115 0 221.5 129t106.5 342q-2 213 -107.5 342.5t-220.5 129.5q-84 0 -124 -62.5t-40 -224.5v-369z" />
<glyph unicode="r" horiz-adv-x="1597" d="M37 86l16 14l33 -6q63 -12 160 -12v901q-76 0 -140 -12l-32 -6l-17 14l2 70l17 16l416 -6l262 22l14 -14q-6 -49 -6 -467h6q53 215 175 370.5t245 155.5h352l16 -16v-274l-98 -99h-295l-16 17v229q-104 0 -216 -196.5t-112 -417.5v-287q96 0 160 12l33 6l16 -14l-4 -72 l-16 -16l-476 12l-475 -12l-16 16z" />
<glyph unicode="s" horiz-adv-x="1474" d="M61 731q0 141 176.5 247.5t462.5 106.5q49 0 171 -18t176 -18q86 0 116 36h80l12 -10l33 -334l-61 -4l-17 11q-43 96 -149.5 158.5t-195.5 80t-163 17.5q-280 0 -280 -92q0 -28 25.5 -47t76.5 -35.5t105.5 -29t138.5 -31.5t145 -38q96 -27 149.5 -44t131.5 -52t119 -71 t71.5 -92t30.5 -126q0 -174 -194.5 -270t-534.5 -96q-82 0 -239.5 25.5t-204.5 25.5q-49 0 -66 -15h-59l-13 13l-32 323l67 4l11 -8q45 -98 148 -166.5t202.5 -94.5t185.5 -26q381 0 381 103q0 29 -24.5 51.5t-83 41.5t-104.5 32.5t-143.5 35t-146.5 33.5 q-109 27 -187.5 55.5t-156.5 72.5t-119 105.5t-41 139.5z" />
<glyph unicode="t" horiz-adv-x="1372" d="M41 934v74l16 16h189q96 0 150.5 77t54.5 193l16 17h336l16 -17v-266l414 16l16 -16v-70l-16 -16h-414v-307q0 -88 -41 -246t-41 -205q0 -123 144 -123q225 0 225 287l10 10h199l16 -16q0 -174 -125 -268t-346 -94q-281 0 -447.5 135t-166.5 356v457l-189 -10z" />
<glyph unicode="u" d="M37 979l4 72l16 16l394 -12l331 26l15 -14q-18 -147 -19 -166v-553q0 -162 40 -224.5t124 -62.5q115 0 221.5 129t106.5 342v451q-96 0 -160 -12l-33 -6l-16 14l4 72l16 16l435 -12l331 26l15 -14q-18 -147 -19 -166v-819q76 0 139 12l33 6l17 -14l-2 -70l-17 -16l-416 6 l-258 -22l-14 14q0 8 -2 149.5t-2 153.5h-6q-55 -152 -171 -236.5t-243 -84.5q-156 0 -275.5 25.5t-182 61t-105.5 71.5t-74 61.5t-59 25.5v758q-55 0 -119 -12l-33 -6z" />
<glyph unicode="v" horiz-adv-x="1699" d="M14 989v49l17 17l661 20h2q8 0 16.5 -7t16.5 -23.5t14.5 -32t16.5 -43t18 -43.5l328 -756h35l108 242q57 131 58 258q0 131 -59.5 216t-172.5 85q-8 0 -15 -1t-16.5 -3t-15.5 -2l-16 14l8 72l16 16l352 -12l277 12l16 -16l7 -72q-74 -96 -195 -299t-186 -352l-142 -330 l-16 -14l-580 -4q0 39 -45 143l-321 754q-41 96 -170 96z" />
<glyph unicode="w" horiz-adv-x="2621" d="M14 989v49l17 17l665 20h9q39 0 38 -28q0 -43 33 -121l328 -756h14l109 242q57 131 57 258q0 131 -59.5 216t-171.5 85q-8 0 -15.5 -1t-16.5 -3t-15 -2l-17 14l8 72l17 16l352 -12l276 12l17 -16q16 -25 59 -125l328 -756h14l109 242q57 131 57 258q0 131 -59.5 216 t-171.5 85q-8 0 -15.5 -1t-16.5 -3t-15 -2l-17 14l8 72l17 16l352 -12l277 12l16 -16l6 -72q-74 -96 -194.5 -299t-186.5 -352l-141 -330l-17 -14l-559 -4q0 39 -45 143l-131 309q-28 -55 -49 -104l-141 -330l-17 -14l-559 -4q0 39 -45 143l-321 754q-41 96 -170 96z" />
<glyph unicode="x" horiz-adv-x="1597" d="M20 84q29 39 164 124t262 193l113 97l-352 428q-52 67 -127 67h-2l-12 11v38l12 13l622 14q8 0 14.5 -3t10.5 -12.5t6 -13.5t6 -20q8 -39 25 -59l235 -310l78 64q96 78 96 164q0 51 -39.5 82.5t-109.5 31.5q-10 0 -35 -4l-12 10l6 52l12 12l314 -8l219 8l12 -12l4 -52 q-23 -31 -53.5 -60.5t-56 -52t-107.5 -91t-145 -123.5l-119 -101l366 -444q55 -66 138 -66l12 -10v-41l-12 -12l-633 -14q-25 0 -35 49q-8 35 -25 59l-254 330l-90 -76q-96 -78 -96 -156q0 -45 39 -72.5t111 -27.5q10 0 34 4l13 -10l-6 -74l-13 -12l-327 12l-246 -12l-10 12 z" />
<glyph unicode="y" horiz-adv-x="1699" d="M14 989v49l17 17l661 20h2q8 0 16.5 -7t16.5 -23.5t14.5 -32t16.5 -43t18 -43.5l328 -756h33l110 242q57 123 58 258q0 131 -59.5 216t-172.5 85q-8 0 -15 -1t-16.5 -3t-15.5 -2l-16 14l8 72l16 16l352 -12l277 12l16 -16l7 -72q-74 -96 -195 -295t-188 -348l-154 -336 q-82 -182 -175 -282.5t-254 -155t-413 -54.5h-76l-16 17l-43 178l41 16q90 -106 287 -106q135 0 230 60.5t95 148.5q0 74 -69.5 116t-171.5 42l-62 143l-321 754q-41 96 -170 96z" />
<glyph unicode="z" horiz-adv-x="1638" d="M55 16v35q47 96 125 185l531 595l149 148v6l-164 -2q-111 -2 -189.5 -19.5t-130.5 -43t-95 -85t-70 -111.5t-70 -157l-22 -12l-62 4l43 510l19 16q414 -20 577 -20h828l16 -16v-43q-6 -6 -36.5 -30t-65.5 -57.5t-72 -74.5l-555 -631q-23 -27 -55.5 -58.5t-54.5 -51.5 l-21 -19v-4l149 2h31q270 0 406.5 94t230.5 322l23 12l61 -4l-43 -510l-18 -16q-496 20 -660 20h-788z" />
<glyph unicode="{" horiz-adv-x="983" d="M82 631v49l16 16q16 0 37 6.5t48.5 22.5t45 57t17.5 99v307q0 219 176 334.5t504 115.5l16 -16v-49l-16 -17q-49 0 -78 -64.5t-29 -180.5v-164q0 -195 -112.5 -327t-341.5 -161h-13v-8h13q229 -29 341.5 -161t112.5 -326v-164q0 -117 29 -181.5t78 -64.5l16 -16v-49 l-16 -17q-328 0 -504 116t-176 335v307q0 57 -17.5 98t-45 57.5t-48 22.5t-37.5 6z" />
<glyph unicode="|" horiz-adv-x="491" d="M82 -393v2015l16 16h295l17 -16v-2015l-17 -17h-295z" />
<glyph unicode="}" horiz-adv-x="983" d="M41 -262l16 16q49 0 78 64.5t29 181.5v164q0 195 112.5 327t341.5 160h13v8h-13q-229 29 -341.5 161t-112.5 327v164q0 117 -29 181t-78 64l-16 17v49l16 16q328 0 504 -115.5t176 -334.5v-307q0 -57 17.5 -98.5t45 -57.5t48 -22.5t37.5 -6.5l16 -16v-49l-16 -17 q-16 0 -37 -6t-48.5 -22.5t-45 -57.5t-17.5 -98v-307q0 -219 -176 -335t-504 -116l-16 17v49z" />
<glyph unicode="~" horiz-adv-x="1474" d="M51 616q0 133 109.5 226.5t265.5 93.5q96 0 194.5 -49t172 -98.5t114.5 -49.5q53 0 92 60.5t39 146.5l19 15l366 -41q0 -133 -110.5 -226.5t-265.5 -93.5q-96 0 -193.5 49t-171.5 98.5t-115 49.5q-51 0 -91 -65.5t-40 -141.5l-18 -15z" />
<glyph unicode="&#xa2;" horiz-adv-x="1515" d="M41 737q0 248 226.5 400.5t592.5 152.5v262l4 4h74l4 -4v-268q35 -6 120 -25.5t124 -19.5q72 0 106 51h80l19 -16l43 -410l-62 -6l-20 12q-106 307 -410 318v-901q137 6 256 57t182 121l23 2l51 -47l2 -23q-170 -186 -514 -211v-264l-4 -4h-74l-4 4v262 q-369 0 -594 151.5t-225 401.5zM614 737q0 -407 246 -446v887q-100 -31 -173 -144.5t-73 -296.5z" />
<glyph unicode="&#xa3;" horiz-adv-x="1966" d="M37 88l16 14q49 -8 74 -8q127 0 201 29l4 573h-193l-16 17v49l16 16h193l-4 307q29 0 81 42t124.5 102.5t166 121t233.5 102.5t296 42q86 0 174 -23.5t172 -73.5t136 -142.5t52 -215.5l-16 -16h-53l-17 16q0 102 -44 180t-111.5 117t-131 57.5t-120.5 18.5 q-61 0 -122 -22.5t-113 -91t-52 -173.5l-4 -346l397 6l17 -16v-63l-17 -17l-397 4l4 -567q158 0 269.5 11.5t222 44t183.5 100t107 172.5l21 14l106 -2l15 -18l-43 -469q-555 61 -1086 61q-127 0 -307 -10.5t-297 -21.5l-117 -11l-16 16z" />
<glyph unicode="&#xa5;" horiz-adv-x="2007" d="M14 1419v29l17 16l737 21q20 0 29.5 -13.5t19.5 -44.5q20 -68 35 -92l391 -694l12 -41h9l166 229q92 129 92 281q0 117 -58.5 193.5t-160.5 76.5q-8 0 -15.5 -1t-16.5 -3t-16 -2l-16 15l8 71l17 17l434 -13l276 13l17 -17l6 -71q-27 -35 -99.5 -109t-171 -190.5 t-204.5 -278.5l-211 -317v-113l352 16l16 -16v-74l-16 -16h-352v-209q96 0 159 12l33 6l17 -14l-4 -72l-17 -16l-516 12l-516 -12l-16 16l-5 72l17 14l33 -6q63 -12 159 -12v197l-352 -19l-16 16v76l16 17h352q0 72 -41 143l-419 774q-33 57 -68 88t-96 31z" />
<glyph unicode="&#xa8;" horiz-adv-x="983" d="M61 1368v213l58 57h213l57 -57v-213l-57 -57h-213zM594 1368v213l57 57h213l58 -57v-213l-58 -57h-213z" />
<glyph unicode="&#xa9;" horiz-adv-x="1904" d="M82 741.5q0 329.5 255 564t615.5 234.5t615.5 -234.5t255 -564t-255 -562t-615.5 -232.5t-615.5 232.5t-255 562zM164 741q0 -295 230.5 -503.5t558 -208.5t558 208.5t230.5 503.5q0 297 -230.5 507t-558 210t-558 -210t-230.5 -507zM438 739.5q0 180.5 163 290 t427 109.5q49 0 128 -18.5t106 -18.5q49 0 77 37h58l14 -13l31 -295l-43 -4l-17 9q-80 233 -309 233q-82 0 -153.5 -88t-71.5 -242q0 -327 215 -327q104 0 200.5 37.5t141.5 91.5h16l35 -29l2 -16q-137 -154 -430 -154q-266 0 -428 108.5t-162 289z" />
<glyph unicode="&#xab;" horiz-adv-x="942" d="M41 498v65l397 352l13 -4v-256l-275 -120v-9l275 -120v-256l-13 -5zM451 498v65l397 352l12 -4v-256l-274 -120v-9l274 -120v-256l-12 -5z" />
<glyph unicode="&#xad;" horiz-adv-x="737" d="M82 590v213l16 16h541l16 -16v-213l-16 -17h-541z" />
<glyph unicode="&#xae;" horiz-adv-x="1904" d="M82 741.5q0 329.5 255 564t615.5 234.5t615.5 -234.5t255 -564t-255 -562t-615.5 -232.5t-615.5 232.5t-255 562zM164 741q0 -295 230.5 -503.5t558 -208.5t558 208.5t230.5 503.5q0 297 -230.5 507t-558 210t-558 -210t-230.5 -507zM418 381v57l8 8q41 -10 94 -10v617 q-51 0 -96 -11l-6 7v63l8 8l750 10q119 0 197.5 -64.5t78.5 -160.5q0 -98 -109.5 -165.5t-232.5 -69.5v-2q20 -12 96 -24.5t154 -12.5l53 -146q20 -61 100 -61l31 2v-47l-364 -35h-11q-31 0 -59 57l-78 177q-25 55 -53.5 68t-93.5 16l4 -226q53 0 98 10l8 -8l-4 -57l-8 -8 l-217 6l-340 -6zM885 735h24q102 0 153.5 40t51.5 130q0 154 -205 154l-20 -2z" />
<glyph unicode="&#xb4;" horiz-adv-x="819" d="M68 1243l215 455h444l51 -64l-622 -405h-78z" />
<glyph unicode="&#xb8;" horiz-adv-x="921" d="M233 -395l54 30q39 -66 127 -65q35 0 56.5 34t21.5 89q0 57 -19.5 92t-50.5 35q-33 0 -96 -29l-52 14l58 220l59 -17l-33 -135q27 8 64 8q131 0 223 -57t92 -139q0 -72 -95 -124.5t-228 -52.5q-123 0 -181 97z" />
<glyph unicode="&#xbb;" horiz-adv-x="942" d="M82 154v256l274 120v9l-274 120v256l12 5l398 -353v-65l-398 -352zM492 154v256l274 120v9l-274 120v256l12 5l397 -353v-65l-397 -352z" />
<glyph unicode="&#xc0;" horiz-adv-x="2068" d="M20 86q141 186 310.5 487t285.5 574l142 330l102 -2l494 20q0 -18 45 -143l499 -1164q47 -109 138 -108l12 -17l-2 -49l-18 -16l-445 12l-407 -12l-17 16l-4 60l16 14q33 -8 46 -8q29 0 28 35q0 12 -4 24l-166 383q-203 12 -270 13h-367q-37 -104 -37 -201 q0 -109 52.5 -174.5t158.5 -65.5q8 0 15.5 1t16.5 3t15 2l17 -14l-8 -72l-17 -16l-332 12l-276 -12l-16 16zM481 637q252 -25 324 -25q43 1 227 11l-262 600h-25zM578 2005l51 63h444l215 -454l-10 -15h-98z" />
<glyph unicode="&#xc1;" horiz-adv-x="2068" d="M20 86q141 186 310.5 487t285.5 574l142 330l102 -2l494 20q0 -18 45 -143l499 -1164q47 -109 138 -108l12 -17l-2 -49l-18 -16l-445 12l-407 -12l-17 16l-4 60l16 14q33 -8 46 -8q29 0 28 35q0 12 -4 24l-166 383q-203 12 -270 13h-367q-37 -104 -37 -201 q0 -109 52.5 -174.5t158.5 -65.5q8 0 15.5 1t16.5 3t15 2l17 -14l-8 -72l-17 -16l-332 12l-276 -12l-16 16zM481 637q252 -25 324 -25q43 1 227 11l-262 600h-25zM809 1614l215 454h444l52 -63l-623 -406h-78z" />
<glyph unicode="&#xc2;" horiz-adv-x="2068" d="M20 86q141 186 310.5 487t285.5 574l142 330l102 -2l494 20q0 -18 45 -143l499 -1164q47 -109 138 -108l12 -17l-2 -49l-18 -16l-445 12l-407 -12l-17 16l-4 60l16 14q33 -8 46 -8q29 0 28 35q0 12 -4 24l-166 383q-203 12 -270 13h-367q-37 -104 -37 -201 q0 -109 52.5 -174.5t158.5 -65.5q8 0 15.5 1t16.5 3t15 2l17 -14l-8 -72l-17 -16l-332 12l-276 -12l-16 16zM481 637q252 -25 324 -25q43 1 227 11l-262 600h-25zM516 1714l334 334h393l334 -334l-4 -14l-342 -62l-180 328h-9l-180 -328l-342 62z" />
<glyph unicode="&#xc4;" horiz-adv-x="2068" d="M20 86q141 186 310.5 487t285.5 574l142 330l102 -2l494 20q0 -18 45 -143l499 -1164q47 -109 138 -108l12 -17l-2 -49l-18 -16l-445 12l-407 -12l-17 16l-4 60l16 14q33 -8 46 -8q29 0 28 35q0 12 -4 24l-166 383q-203 12 -270 13h-367q-37 -104 -37 -201 q0 -109 52.5 -174.5t158.5 -65.5q8 0 15.5 1t16.5 3t15 2l17 -14l-8 -72l-17 -16l-332 12l-276 -12l-16 16zM481 637q252 -25 324 -25q43 1 227 11l-262 600h-25zM618 1737v213l58 57h213l57 -57v-213l-57 -58h-213zM1151 1737v213l57 57h213l58 -57v-213l-58 -58h-213z" />
<glyph unicode="&#xc8;" horiz-adv-x="1966" d="M37 88l16 14l33 -6q74 -14 160 -14v1311q-86 0 -160 -15l-33 -6l-16 14l4 72l16 17h764l903 20l19 -16l43 -426l-82 -6l-23 12q-43 104 -123.5 174t-192.5 102.5t-218.5 45t-245.5 12.5l-10 -574h51q41 0 79 17.5t71.5 59.5t50 64.5t48.5 79.5l32 58l22 6l64 -14v-623 l-64 -14l-22 6l-32 57q-32 57 -48.5 79.5t-50 64.5t-71.5 59.5t-79 17.5h-51l10 -655q190 0 377.5 52t334 157.5t193.5 245.5l21 14l86 -2l14 -19l-43 -550q-901 20 -1065 20h-762l-16 16zM471 2005l51 63h445l215 -454l-11 -15h-98z" />
<glyph unicode="&#xc9;" horiz-adv-x="1966" d="M37 88l16 14l33 -6q74 -14 160 -14v1311q-86 0 -160 -15l-33 -6l-16 14l4 72l16 17h764l903 20l19 -16l43 -426l-82 -6l-23 12q-43 104 -123.5 174t-192.5 102.5t-218.5 45t-245.5 12.5l-10 -574h51q41 0 79 17.5t71.5 59.5t50 64.5t48.5 79.5l32 58l22 6l64 -14v-623 l-64 -14l-22 6l-32 57q-32 57 -48.5 79.5t-50 64.5t-71.5 59.5t-79 17.5h-51l10 -655q190 0 377.5 52t334 157.5t193.5 245.5l21 14l86 -2l14 -19l-43 -550q-901 20 -1065 20h-762l-16 16zM866 1614l215 454h445l51 -63l-623 -406h-77z" />
<glyph unicode="&#xca;" horiz-adv-x="1966" d="M37 88l16 14l33 -6q74 -14 160 -14v1311q-86 0 -160 -15l-33 -6l-16 14l4 72l16 17h764l903 20l19 -16l43 -426l-82 -6l-23 12q-43 104 -123.5 174t-192.5 102.5t-218.5 45t-245.5 12.5l-10 -574h51q41 0 79 17.5t71.5 59.5t50 64.5t48.5 79.5l32 58l22 6l64 -14v-623 l-64 -14l-22 6l-32 57q-32 57 -48.5 79.5t-50 64.5t-71.5 59.5t-79 17.5h-51l10 -655q190 0 377.5 52t334 157.5t193.5 245.5l21 14l86 -2l14 -19l-43 -550q-901 20 -1065 20h-762l-16 16zM494 1714l333 334h394l333 -334l-4 -14l-342 -62l-180 328h-8l-180 -328l-342 62z " />
<glyph unicode="&#xcb;" horiz-adv-x="1966" d="M37 88l16 14l33 -6q74 -14 160 -14v1311q-86 0 -160 -15l-33 -6l-16 14l4 72l16 17h764l903 20l19 -16l43 -426l-82 -6l-23 12q-43 104 -123.5 174t-192.5 102.5t-218.5 45t-245.5 12.5l-10 -574h51q41 0 79 17.5t71.5 59.5t50 64.5t48.5 79.5l32 58l22 6l64 -14v-623 l-64 -14l-22 6l-32 57q-32 57 -48.5 79.5t-50 64.5t-71.5 59.5t-79 17.5h-51l10 -655q190 0 377.5 52t334 157.5t193.5 245.5l21 14l86 -2l14 -19l-43 -550q-901 20 -1065 20h-762l-16 16zM594 1737v213l57 57h213l58 -57v-213l-58 -58h-213zM1126 1737v213l58 57h213 l57 -57v-213l-57 -58h-213z" />
<glyph unicode="&#xcc;" horiz-adv-x="1146" d="M20 2005l52 63h444l215 -454l-10 -15h-98zM37 86l16 14l33 -6q63 -12 160 -12v1311q-96 0 -160 -13l-33 -6l-16 15l4 71l16 17l516 -13l517 13l16 -17l4 -71l-16 -15l-33 6q-63 12 -160 13v-1311q96 0 160 12l33 6l16 -14l-4 -72l-16 -16l-517 12l-516 -12l-16 16z" />
<glyph unicode="&#xcd;" horiz-adv-x="1146" d="M37 86l16 14l33 -6q63 -12 160 -12v1311q-96 0 -160 -13l-33 -6l-16 15l4 71l16 17l516 -13l517 13l16 -17l4 -71l-16 -15l-33 6q-63 12 -160 13v-1311q96 0 160 12l33 6l16 -14l-4 -72l-16 -16l-517 12l-516 -12l-16 16zM416 1614l215 454h444l51 -63l-622 -406h-78z " />
<glyph unicode="&#xce;" horiz-adv-x="1146" d="M37 86l16 14l33 -6q63 -12 160 -12v1311q-96 0 -160 -13l-33 -6l-16 15l4 71l16 17l516 -13l517 13l16 -17l4 -71l-16 -15l-33 6q-63 12 -160 13v-1311q96 0 160 12l33 6l16 -14l-4 -72l-16 -16l-517 12l-516 -12l-16 16zM43 1714l334 334h393l334 -334l-4 -14l-342 -62 l-180 328h-9l-180 -328l-342 62z" />
<glyph unicode="&#xcf;" horiz-adv-x="1146" d="M37 86l16 14l33 -6q63 -12 160 -12v1311q-96 0 -160 -13l-33 -6l-16 15l4 71l16 17l516 -13l517 13l16 -17l4 -71l-16 -15l-33 6q-63 12 -160 13v-1311q96 0 160 12l33 6l16 -14l-4 -72l-16 -16l-517 12l-516 -12l-16 16zM143 1737v213l58 57h213l57 -57v-213l-57 -58 h-213zM676 1737v213l57 57h213l58 -57v-213l-58 -58h-213z" />
<glyph unicode="&#xd2;" d="M61 737q0 340 270.5 549t713 209t713 -209t270.5 -549t-270.5 -548.5t-713 -208.5t-713 208.5t-270.5 548.5zM492 2005l51 63h444l215 -454l-10 -15h-98zM717 737.5q0 -360.5 83.5 -513t284.5 -152.5q156 0 221.5 152.5t65.5 513t-84 513t-284 152.5 q-156 0 -221.5 -152.5t-65.5 -513z" />
<glyph unicode="&#xd3;" d="M61 737q0 340 270.5 549t713 209t713 -209t270.5 -549t-270.5 -548.5t-713 -208.5t-713 208.5t-270.5 548.5zM717 737.5q0 -360.5 83.5 -513t284.5 -152.5q156 0 221.5 152.5t65.5 513t-84 513t-284 152.5q-156 0 -221.5 -152.5t-65.5 -513zM887 1614l215 454h444l51 -63 l-622 -406h-78z" />
<glyph unicode="&#xd4;" d="M61 737q0 340 270.5 549t713 209t713 -209t270.5 -549t-270.5 -548.5t-713 -208.5t-713 208.5t-270.5 548.5zM514 1714l334 334h393l334 -334l-4 -14l-342 -62l-180 328h-9l-180 -328l-342 62zM717 737.5q0 -360.5 83.5 -513t284.5 -152.5q156 0 221.5 152.5t65.5 513 t-84 513t-284 152.5q-156 0 -221.5 -152.5t-65.5 -513z" />
<glyph unicode="&#xd6;" d="M61 737q0 340 270.5 549t713 209t713 -209t270.5 -549t-270.5 -548.5t-713 -208.5t-713 208.5t-270.5 548.5zM614 1737v213l58 57h213l57 -57v-213l-57 -58h-213zM717 737.5q0 -360.5 83.5 -513t284.5 -152.5q156 0 221.5 152.5t65.5 513t-84 513t-284 152.5 q-156 0 -221.5 -152.5t-65.5 -513zM1147 1737v213l57 57h213l58 -57v-213l-58 -58h-213z" />
<glyph unicode="&#xd9;" d="M31 1389l4 71l16 17l543 -13l434 13l16 -17l5 -71l-17 -15l-33 6q-63 12 -118 13v-942q0 -190 78.5 -290t228.5 -100q258 0 415.5 106.5t157.5 283.5v491q0 248 -81 343t-193 95q-23 0 -53 -6l-17 15l6 71l17 17l424 -13l188 13l16 -17l5 -71l-17 -15q-33 8 -49 8 q-53 0 -98 -55t-45 -180v-698q0 -219 -186.5 -354.5t-489.5 -135.5q-469 0 -716 126t-247 366v942q-82 0 -145 -13l-33 -6zM614 2005l52 63h444l215 -454l-10 -15h-98z" />
<glyph unicode="&#xda;" d="M31 1389l4 71l16 17l543 -13l434 13l16 -17l5 -71l-17 -15l-33 6q-63 12 -118 13v-942q0 -190 78.5 -290t228.5 -100q258 0 415.5 106.5t157.5 283.5v491q0 248 -81 343t-193 95q-23 0 -53 -6l-17 15l6 71l17 17l424 -13l188 13l16 -17l5 -71l-17 -15q-33 8 -49 8 q-53 0 -98 -55t-45 -180v-698q0 -219 -186.5 -354.5t-489.5 -135.5q-469 0 -716 126t-247 366v942q-82 0 -145 -13l-33 -6zM1010 1614l215 454h444l51 -63l-622 -406h-78z" />
<glyph unicode="&#xdb;" d="M31 1389l4 71l16 17l543 -13l434 13l16 -17l5 -71l-17 -15l-33 6q-63 12 -118 13v-942q0 -190 78.5 -290t228.5 -100q258 0 415.5 106.5t157.5 283.5v491q0 248 -81 343t-193 95q-23 0 -53 -6l-17 15l6 71l17 17l424 -13l188 13l16 -17l5 -71l-17 -15q-33 8 -49 8 q-53 0 -98 -55t-45 -180v-698q0 -219 -186.5 -354.5t-489.5 -135.5q-469 0 -716 126t-247 366v942q-82 0 -145 -13l-33 -6zM637 1714l334 334h393l334 -334l-4 -14l-342 -62l-181 328h-8l-180 -328l-342 62z" />
<glyph unicode="&#xdc;" d="M31 1389l4 71l16 17l543 -13l434 13l16 -17l5 -71l-17 -15l-33 6q-63 12 -118 13v-942q0 -190 78.5 -290t228.5 -100q258 0 415.5 106.5t157.5 283.5v491q0 248 -81 343t-193 95q-23 0 -53 -6l-17 15l6 71l17 17l424 -13l188 13l16 -17l5 -71l-17 -15q-33 8 -49 8 q-53 0 -98 -55t-45 -180v-698q0 -219 -186.5 -354.5t-489.5 -135.5q-469 0 -716 126t-247 366v942q-82 0 -145 -13l-33 -6zM737 1737v213l58 57h213l57 -57v-213l-57 -58h-213zM1270 1737v213l57 57h213l57 -57v-213l-57 -58h-213z" />
<glyph unicode="&#xdd;" horiz-adv-x="2007" d="M14 1399v49l17 16l737 21q25 0 36 -19.5t22.5 -61.5t25.5 -69l391 -694l12 -41h9l166 229q92 129 92 281q0 117 -58.5 193.5t-160.5 76.5q-8 0 -15.5 -1t-16.5 -3t-16 -2l-16 15l8 71l17 17l434 -13l276 13l17 -17l6 -71q-27 -35 -99.5 -109t-171 -190.5t-204.5 -278.5 l-211 -317v-412q96 0 159 12l33 6l17 -14l-4 -72l-17 -16l-516 12l-516 -12l-16 16l-5 72l17 14l33 -6q63 -12 159 -12v287q0 72 -41 143l-419 774q-29 51 -65 73.5t-99 22.5zM907 1614l215 454h445l51 -63l-623 -406h-77z" />
<glyph unicode="&#xe0;" horiz-adv-x="1966" d="M82 532.5q0 270.5 178 411.5t518 141q92 0 209 -51t160 -51q84 0 155.5 33t90.5 63l331 -14l15 -14q-18 -147 -19 -166v-805q76 0 140 12l32 6l17 -14l-2 -70l-17 -16l-374 12l-263 -22l-14 14q0 12 -20.5 151.5t-20.5 151.5h-6q-55 -154 -170 -239.5t-244 -85.5 q-340 0 -518 141t-178 411.5zM369 1636l51 64h444l215 -455l-10 -14h-98zM655 348q0 -162 40 -224.5t124 -62.5q115 0 220.5 129t107.5 342v369q-72 0 -179.5 51.5t-154.5 51.5q-158 0 -158 -287v-369z" />
<glyph unicode="&#xe2;" horiz-adv-x="1966" d="M82 532.5q0 270.5 178 411.5t518 141q92 0 209 -51t160 -51q84 0 155.5 33t90.5 63l331 -14l15 -14q-18 -147 -19 -166v-805q76 0 140 12l32 6l17 -14l-2 -70l-17 -16l-374 12l-263 -22l-14 14q0 12 -20.5 151.5t-20.5 151.5h-6q-55 -154 -170 -239.5t-244 -85.5 q-340 0 -518 141t-178 411.5zM391 1346l334 333h393l334 -333l-4 -15l-342 -61l-180 327h-8l-181 -327l-342 61zM655 348q0 -162 40 -224.5t124 -62.5q115 0 220.5 129t107.5 342v369q-72 0 -179.5 51.5t-154.5 51.5q-158 0 -158 -287v-369z" />
<glyph unicode="&#xe4;" horiz-adv-x="1966" d="M82 532.5q0 270.5 178 411.5t518 141q92 0 209 -51t160 -51q84 0 155.5 33t90.5 63l331 -14l15 -14q-18 -147 -19 -166v-805q76 0 140 12l32 6l17 -14l-2 -70l-17 -16l-374 12l-263 -22l-14 14q0 12 -20.5 151.5t-20.5 151.5h-6q-55 -154 -170 -239.5t-244 -85.5 q-340 0 -518 141t-178 411.5zM492 1368v213l57 57h213l57 -57v-213l-57 -57h-213zM655 348q0 -162 40 -224.5t124 -62.5q115 0 220.5 129t107.5 342v369q-72 0 -179.5 51.5t-154.5 51.5q-158 0 -158 -287v-369zM1024 1368v213l57 57h213l58 -57v-213l-58 -57h-213z" />
<glyph unicode="&#xe8;" horiz-adv-x="1607" d="M51 532q0 248 226.5 400.5t592.5 152.5q313 0 505 -151.5t192 -401.5l-11 -10q-502 10 -583 10h-348q0 -227 76.5 -340.5t218.5 -113.5q147 0 279 52t198 124l22 2l45 -41l2 -22q-90 -98 -244.5 -155.5t-351.5 -57.5q-369 0 -594 151.5t-225 400.5zM307 1636l51 64h445 l215 -455l-10 -14h-99zM629 637q311 -27 344 -27q73 0 141 2q-10 184 -72.5 288t-169.5 104q-104 0 -166.5 -97.5t-76.5 -269.5z" />
<glyph unicode="&#xe9;" horiz-adv-x="1607" d="M51 532q0 248 226.5 400.5t592.5 152.5q313 0 505 -151.5t192 -401.5l-11 -10q-502 10 -583 10h-348q0 -227 76.5 -340.5t218.5 -113.5q147 0 279 52t198 124l22 2l45 -41l2 -22q-90 -98 -244.5 -155.5t-351.5 -57.5q-369 0 -594 151.5t-225 400.5zM629 637 q311 -27 344 -27q73 0 141 2q-10 184 -72.5 288t-169.5 104q-104 0 -166.5 -97.5t-76.5 -269.5zM702 1245l216 455h444l51 -64l-622 -405h-78z" />
<glyph unicode="&#xea;" horiz-adv-x="1607" d="M51 532q0 248 226.5 400.5t592.5 152.5q313 0 505 -151.5t192 -401.5l-11 -10q-502 10 -583 10h-348q0 -227 76.5 -340.5t218.5 -113.5q147 0 279 52t198 124l22 2l45 -41l2 -22q-90 -98 -244.5 -155.5t-351.5 -57.5q-369 0 -594 151.5t-225 400.5zM330 1346l334 333h393 l334 -333l-5 -15l-342 -61l-180 327h-8l-180 -327l-342 61zM629 637q311 -27 344 -27q73 0 141 2q-10 184 -72.5 288t-169.5 104q-104 0 -166.5 -97.5t-76.5 -269.5z" />
<glyph unicode="&#xeb;" horiz-adv-x="1607" d="M51 532q0 248 226.5 400.5t592.5 152.5q313 0 505 -151.5t192 -401.5l-11 -10q-502 10 -583 10h-348q0 -227 76.5 -340.5t218.5 -113.5q147 0 279 52t198 124l22 2l45 -41l2 -22q-90 -98 -244.5 -155.5t-351.5 -57.5q-369 0 -594 151.5t-225 400.5zM430 1368v213l57 57 h213l58 -57v-213l-58 -57h-213zM629 637q311 -27 344 -27q73 0 141 2q-10 184 -72.5 288t-169.5 104q-104 0 -166.5 -97.5t-76.5 -269.5zM963 1368v213l57 57h213l57 -57v-213l-57 -57h-213z" />
<glyph unicode="&#xec;" horiz-adv-x="1064" d="M-20 1636l51 64h444l215 -455l-10 -14h-98zM37 86l16 14l33 -6q63 -12 160 -12v901q-76 0 -140 -12l-32 -6l-17 14l2 70l17 16l456 -10l291 26l15 -14q-18 -147 -19 -166v-819q96 0 160 12l33 6l16 -14l-4 -72l-16 -16l-476 12l-475 -12l-16 16z" />
<glyph unicode="&#xed;" horiz-adv-x="1064" d="M37 86l16 14l33 -6q63 -12 160 -12v901q-76 0 -140 -12l-32 -6l-17 14l2 70l17 16l456 -10l291 26l15 -14q-18 -147 -19 -166v-819q96 0 160 12l33 6l16 -14l-4 -72l-16 -16l-476 12l-475 -12l-16 16zM375 1245l215 455h444l51 -64l-622 -405h-78z" />
<glyph unicode="&#xee;" horiz-adv-x="1064" d="M2 1346l334 333h393l334 -333l-4 -15l-342 -61l-180 327h-9l-180 -327l-342 61zM37 86l16 14l33 -6q63 -12 160 -12v901q-76 0 -140 -12l-32 -6l-17 14l2 70l17 16l456 -10l291 26l15 -14q-18 -147 -19 -166v-819q96 0 160 12l33 6l16 -14l-4 -72l-16 -16l-476 12 l-475 -12l-16 16z" />
<glyph unicode="&#xef;" horiz-adv-x="1064" d="M37 86l16 14l33 -6q63 -12 160 -12v901q-76 0 -140 -12l-32 -6l-17 14l2 70l17 16l456 -10l291 26l15 -14q-18 -147 -19 -166v-819q96 0 160 12l33 6l16 -14l-4 -72l-16 -16l-476 12l-475 -12l-16 16zM102 1368v213l58 57h213l57 -57v-213l-57 -57h-213zM635 1368v213 l57 57h213l58 -57v-213l-58 -57h-213z" />
<glyph unicode="&#xf2;" horiz-adv-x="1740" d="M51 532.5q0 249.5 225.5 401t594 151.5t594 -151.5t225.5 -401t-225.5 -401t-594 -151.5t-594 151.5t-225.5 401zM307 1636l51 64h445l215 -455l-10 -14h-99zM625 348q0 -154 73.5 -220.5t172 -66.5t172 67t73.5 220v369q0 154 -73.5 220.5t-172 66.5t-172 -67 t-73.5 -220v-369z" />
<glyph unicode="&#xf3;" horiz-adv-x="1740" d="M51 532.5q0 249.5 225.5 401t594 151.5t594 -151.5t225.5 -401t-225.5 -401t-594 -151.5t-594 151.5t-225.5 401zM625 348q0 -154 73.5 -220.5t172 -66.5t172 67t73.5 220v369q0 154 -73.5 220.5t-172 66.5t-172 -67t-73.5 -220v-369zM702 1245l216 455h444l51 -64 l-622 -405h-78z" />
<glyph unicode="&#xf4;" horiz-adv-x="1740" d="M51 532.5q0 249.5 225.5 401t594 151.5t594 -151.5t225.5 -401t-225.5 -401t-594 -151.5t-594 151.5t-225.5 401zM330 1346l334 333h393l334 -333l-5 -15l-342 -61l-180 327h-8l-180 -327l-342 61zM625 348q0 -154 73.5 -220.5t172 -66.5t172 67t73.5 220v369 q0 154 -73.5 220.5t-172 66.5t-172 -67t-73.5 -220v-369z" />
<glyph unicode="&#xf6;" horiz-adv-x="1740" d="M51 532.5q0 249.5 225.5 401t594 151.5t594 -151.5t225.5 -401t-225.5 -401t-594 -151.5t-594 151.5t-225.5 401zM430 1368v213l57 57h213l58 -57v-213l-58 -57h-213zM625 348q0 -154 73.5 -220.5t172 -66.5t172 67t73.5 220v369q0 154 -73.5 220.5t-172 66.5t-172 -67 t-73.5 -220v-369zM963 1368v213l57 57h213l57 -57v-213l-57 -57h-213z" />
<glyph unicode="&#xf9;" d="M37 979l4 72l16 16l394 -12l331 26l15 -14q-18 -147 -19 -166v-553q0 -162 40 -224.5t124 -62.5q115 0 221.5 129t106.5 342v451q-96 0 -160 -12l-33 -6l-16 14l4 72l16 16l435 -12l331 26l15 -14q-18 -147 -19 -166v-819q76 0 139 12l33 6l17 -14l-2 -70l-17 -16l-416 6 l-258 -22l-14 14q0 8 -2 149.5t-2 153.5h-6q-55 -152 -171 -236.5t-243 -84.5q-156 0 -275.5 25.5t-182 61t-105.5 71.5t-74 61.5t-59 25.5v758q-55 0 -119 -12l-33 -6zM512 1636l51 64h445l215 -455l-11 -14h-98z" />
<glyph unicode="&#xfa;" d="M37 979l4 72l16 16l394 -12l331 26l15 -14q-18 -147 -19 -166v-553q0 -162 40 -224.5t124 -62.5q115 0 221.5 129t106.5 342v451q-96 0 -160 -12l-33 -6l-16 14l4 72l16 16l435 -12l331 26l15 -14q-18 -147 -19 -166v-819q76 0 139 12l33 6l17 -14l-2 -70l-17 -16l-416 6 l-258 -22l-14 14q0 8 -2 149.5t-2 153.5h-6q-55 -152 -171 -236.5t-243 -84.5q-156 0 -275.5 25.5t-182 61t-105.5 71.5t-74 61.5t-59 25.5v758q-55 0 -119 -12l-33 -6zM907 1245l215 455h445l51 -64l-623 -405h-77z" />
<glyph unicode="&#xfb;" d="M37 979l4 72l16 16l394 -12l331 26l15 -14q-18 -147 -19 -166v-553q0 -162 40 -224.5t124 -62.5q115 0 221.5 129t106.5 342v451q-96 0 -160 -12l-33 -6l-16 14l4 72l16 16l435 -12l331 26l15 -14q-18 -147 -19 -166v-819q76 0 139 12l33 6l17 -14l-2 -70l-17 -16l-416 6 l-258 -22l-14 14q0 8 -2 149.5t-2 153.5h-6q-55 -152 -171 -236.5t-243 -84.5q-156 0 -275.5 25.5t-182 61t-105.5 71.5t-74 61.5t-59 25.5v758q-55 0 -119 -12l-33 -6zM535 1346l333 333h394l333 -333l-4 -15l-342 -61l-180 327h-8l-180 -327l-342 61z" />
<glyph unicode="&#xfc;" d="M37 979l4 72l16 16l394 -12l331 26l15 -14q-18 -147 -19 -166v-553q0 -162 40 -224.5t124 -62.5q115 0 221.5 129t106.5 342v451q-96 0 -160 -12l-33 -6l-16 14l4 72l16 16l435 -12l331 26l15 -14q-18 -147 -19 -166v-819q76 0 139 12l33 6l17 -14l-2 -70l-17 -16l-416 6 l-258 -22l-14 14q0 8 -2 149.5t-2 153.5h-6q-55 -152 -171 -236.5t-243 -84.5q-156 0 -275.5 25.5t-182 61t-105.5 71.5t-74 61.5t-59 25.5v758q-55 0 -119 -12l-33 -6zM635 1368v213l57 57h213l58 -57v-213l-58 -57h-213zM1167 1368v213l58 57h213l57 -57v-213l-57 -57 h-213z" />
<glyph unicode="&#xfd;" horiz-adv-x="1699" d="M14 989v49l17 17l661 20h2q8 0 16.5 -7t16.5 -23.5t14.5 -32t16.5 -43t18 -43.5l328 -756h33l110 242q57 123 58 258q0 131 -59.5 216t-172.5 85q-8 0 -15 -1t-16.5 -3t-15.5 -2l-16 14l8 72l16 16l352 -12l277 12l16 -16l7 -72q-74 -96 -195 -295t-188 -348l-154 -336 q-82 -182 -175 -282.5t-254 -155t-413 -54.5h-76l-16 17l-43 178l41 16q90 -106 287 -106q135 0 230 60.5t95 148.5q0 74 -69.5 116t-171.5 42l-62 143l-321 754q-41 96 -170 96zM754 1245l215 455h444l51 -64l-622 -405h-78z" />
<glyph unicode="&#xff;" horiz-adv-x="1699" d="M14 989v49l17 17l661 20h2q8 0 16.5 -7t16.5 -23.5t14.5 -32t16.5 -43t18 -43.5l328 -756h33l110 242q57 123 58 258q0 131 -59.5 216t-172.5 85q-8 0 -15 -1t-16.5 -3t-15.5 -2l-16 14l8 72l16 16l352 -12l277 12l16 -16l7 -72q-74 -96 -195 -295t-188 -348l-154 -336 q-82 -182 -175 -282.5t-254 -155t-413 -54.5h-76l-16 17l-43 178l41 16q90 -106 287 -106q135 0 230 60.5t95 148.5q0 74 -69.5 116t-171.5 42l-62 143l-321 754q-41 96 -170 96zM481 1368v213l58 57h213l57 -57v-213l-57 -57h-213zM1014 1368v213l57 57h213l57 -57v-213 l-57 -57h-213z" />
<glyph unicode="&#x178;" horiz-adv-x="2007" d="M14 1399v49l17 16l737 21q25 0 36 -19.5t22.5 -61.5t25.5 -69l391 -694l12 -41h9l166 229q92 129 92 281q0 117 -58.5 193.5t-160.5 76.5q-8 0 -15.5 -1t-16.5 -3t-16 -2l-16 15l8 71l17 17l434 -13l276 13l17 -17l6 -71q-27 -35 -99.5 -109t-171 -190.5t-204.5 -278.5 l-211 -317v-412q96 0 159 12l33 6l17 -14l-4 -72l-17 -16l-516 12l-516 -12l-16 16l-5 72l17 14l33 -6q63 -12 159 -12v287q0 72 -41 143l-419 774q-29 51 -65 73.5t-99 22.5zM635 1737v213l57 57h213l58 -57v-213l-58 -58h-213zM1167 1737v213l58 57h213l57 -57v-213 l-57 -58h-213z" />
<glyph unicode="&#x2c6;" horiz-adv-x="1146" d="M43 1346l334 333h393l334 -333l-4 -15l-342 -61l-180 327h-9l-180 -327l-342 61z" />
<glyph unicode="&#x2da;" horiz-adv-x="573" d="M41 1434q0 104 73 174.5t173 70.5q104 0 174.5 -72.5t70.5 -172.5q0 -104 -72.5 -175t-172.5 -71q-104 0 -175 72.5t-71 173.5zM123 1434q0 -68 47 -116t117 -48q68 0 116 47t48 117q0 68 -47 115.5t-117 47.5q-68 0 -116 -47t-48 -116z" />
<glyph unicode="&#x2dc;" horiz-adv-x="899" d="M49 1333l10 60q51 260 242 260q74 0 134.5 -57.5t98 -117t48.5 -61.5l47 225l18 15l244 -41l-12 -60q-51 -260 -242 -260q-57 0 -108.5 36t-80 79t-54 81t-36.5 40l-47 -225l-18 -15z" />
<glyph unicode="&#x2000;" horiz-adv-x="1034" />
<glyph unicode="&#x2001;" horiz-adv-x="2068" />
<glyph unicode="&#x2002;" horiz-adv-x="1034" />
<glyph unicode="&#x2003;" horiz-adv-x="2068" />
<glyph unicode="&#x2004;" horiz-adv-x="689" />
<glyph unicode="&#x2005;" horiz-adv-x="517" />
<glyph unicode="&#x2006;" horiz-adv-x="344" />
<glyph unicode="&#x2007;" horiz-adv-x="344" />
<glyph unicode="&#x2008;" horiz-adv-x="258" />
<glyph unicode="&#x2009;" horiz-adv-x="413" />
<glyph unicode="&#x200a;" horiz-adv-x="114" />
<glyph unicode="&#x2010;" horiz-adv-x="737" d="M82 590v213l16 16h541l16 -16v-213l-16 -17h-541z" />
<glyph unicode="&#x2011;" horiz-adv-x="737" d="M82 590v213l16 16h541l16 -16v-213l-16 -17h-541z" />
<glyph unicode="&#x2012;" horiz-adv-x="737" d="M82 590v213l16 16h541l16 -16v-213l-16 -17h-541z" />
<glyph unicode="&#x2013;" horiz-adv-x="1064" d="M82 549v213l16 16h869l16 -16v-213l-16 -17h-869z" />
<glyph unicode="&#x2014;" horiz-adv-x="2048" d="M82 549v213l16 16h1852l16 -16v-213l-16 -17h-1852z" />
<glyph unicode="&#x2018;" horiz-adv-x="450" d="M82 1204v172l57 58h70q0 33 -48 116.5t-71 106.5v22l80 66l25 -2q59 -59 116.5 -167t57.5 -200v-172l-58 -57h-172z" />
<glyph unicode="&#x2019;" horiz-adv-x="450" d="M82 1389v172l57 57h172l58 -57v-172q0 -92 -57.5 -200t-116.5 -167l-25 -2l-80 65v23q23 23 71 106.5t48 116.5h-70z" />
<glyph unicode="&#x201a;" horiz-adv-x="450" d="M82 16v172l57 58h172l58 -58v-172q0 -92 -57.5 -199.5t-116.5 -166.5l-25 -2l-80 65v23q23 23 71 106.5t48 116.5h-70z" />
<glyph unicode="&#x201c;" horiz-adv-x="819" d="M82 1204v172l57 58h70q0 33 -48 116.5t-71 106.5v22l80 66l25 -2q59 -59 116.5 -167t57.5 -200v-172l-58 -57h-172zM451 1204v172l57 58h70q0 33 -48.5 116.5t-70.5 106.5v22l80 66l24 -2q59 -59 116.5 -167t57.5 -200v-172l-57 -57h-172z" />
<glyph unicode="&#x201d;" horiz-adv-x="819" d="M82 1389v172l57 57h172l58 -57v-172q0 -92 -57.5 -200t-116.5 -167l-25 -2l-80 65v23q23 23 71 106.5t48 116.5h-70zM451 1389v172l57 57h172l57 -57v-172q0 -92 -57 -200t-117 -167l-24 -2l-80 65v23q23 23 71 106.5t48 116.5h-70z" />
<glyph unicode="&#x201e;" horiz-adv-x="819" d="M82 16v172l57 58h172l58 -58v-172q0 -92 -57.5 -199.5t-116.5 -166.5l-25 -2l-80 65v23q23 23 71 106.5t48 116.5h-70zM451 16v172l57 58h172l57 -58v-172q0 -92 -57 -199.5t-117 -166.5l-24 -2l-80 65v23q23 23 71 106.5t48 116.5h-70z" />
<glyph unicode="&#x2026;" horiz-adv-x="1392" d="M82 16v213l57 58h213l58 -58v-213l-58 -57h-213zM532 16v213l58 58h213l57 -58v-213l-57 -57h-213zM983 16v213l57 58h213l58 -58v-213l-58 -57h-213z" />
<glyph unicode="&#x202f;" horiz-adv-x="413" />
<glyph unicode="&#x2039;" horiz-adv-x="532" d="M41 498v65l397 352l13 -4v-256l-275 -120v-9l275 -120v-256l-13 -5z" />
<glyph unicode="&#x203a;" horiz-adv-x="532" d="M82 150v256l274 120v9l-274 120v256l12 4l398 -352v-65l-398 -353z" />
<glyph unicode="&#x205f;" horiz-adv-x="517" />
<glyph unicode="&#x20ac;" horiz-adv-x="2007" d="M41 549v74l16 16l205 -12q-16 78 -16 155q0 29 4 78h-152l-16 17v73l16 17l172 -11q72 248 333 393.5t646 145.5q63 0 199.5 -25.5t191.5 -25.5q94 0 129 51h82l19 -16l43 -430l-64 -7l-20 13q-43 102 -119 176t-154.5 105.5t-134 44t-90.5 12.5q-178 0 -285.5 -115 t-134.5 -336l547 10l17 -16v-74l-17 -16l-555 10q-2 -25 -2 -76q0 -63 8 -166l508 11l17 -17v-73l-17 -17q-270 6 -497 10q76 -446 411 -446q166 0 307.5 85t223.5 193l22 -2l51 -49l-2 -22q-98 -125 -261 -216t-341 -91q-395 0 -671.5 148t-370.5 404h-232z" />
<glyph unicode="&#x2122;" horiz-adv-x="2908" d="M33 1300l24 254l17 15h4l35 -1q35 -1 88 -3t109.5 -4t108.5 -3.5t79 -1.5h297q166 0 417 13h5l18 -15l25 -254l-15 -18l-71 -4l-5 6q-53 127 -111.5 158t-205.5 33v-754q39 0 84 8l25 4l18 -16l-4 -51l-14 -17l-316 8l-313 -8l-15 17l-4 51l19 16l24 -4q41 -8 82 -8v754 q-152 -2 -208 -34t-107 -157l-4 -6l-74 4zM1313 717l16 16l6 -2q12 -2 25 -2q76 0 78 129l12 567q0 45 -20.5 59.5t-81.5 14.5h-5l-16 17v24l16 16h531l237 -436l236 436h510l14 -16v-24l-14 -17h-4q-63 0 -84 -15.5t-21 -58.5l13 -567q2 -129 80 -129q6 0 14 1t10 1l4 2 l19 -16l-4 -51l-15 -17l-315 8l-313 -8l-15 17l-4 51l16 16l7 -2q12 -2 24 -2q78 0 78 129l-10 506l-180 -332q-2 -90 -62.5 -204.5t-60.5 -168.5v-6l-21 -14h-80l-18 16l-383 711l-12 -387q0 -139 38.5 -194.5t116.5 -55.5q20 0 29 2l6 2l16 -16l-4 -51l-14 -17l-242 8 l-135 -8l-14 17z" />
<glyph unicode="&#xe000;" horiz-adv-x="1070" d="M0 1070h1070v-1070h-1070v1070z" />
</font>
</defs>
</svg>
